<svg width="23" height="23" viewBox="0 0 23 23" fill="none" xmlns="http://www.w3.org/2000/svg">
<path id="Vector" d="M11.5 23C11.3412 22.9995 11.187 22.9406 11.0615 22.8327C7.0646 19.3902 4.31134 16.4259 2.38478 13.5014C-0.073737 9.76416 -0.634452 6.31376 0.717015 3.24585C1.68029 1.05448 4.44793 -0.738451 7.68282 0.305435C9.22518 0.79928 10.5709 1.85834 11.5 3.3096C12.4291 1.85834 13.7748 0.79928 15.3172 0.305435C18.5449 -0.722514 21.3197 1.05448 22.283 3.24585C23.6345 6.31376 23.0737 9.76416 20.6152 13.5014C18.6887 16.4259 15.9354 19.3902 11.9385 22.8327C11.813 22.9406 11.6588 22.9995 11.5 23ZM5.84253 1.60432C5.0728 1.57111 4.30945 1.7709 3.63442 2.18224C2.95938 2.59358 2.39815 3.20094 2.01097 3.93912C0.896732 6.47313 1.39994 9.29401 3.54935 12.5532C5.83359 15.8192 8.50838 18.7252 11.5 21.1911C14.4911 18.7276 17.1659 15.8243 19.4507 12.5611C21.6073 9.29401 22.1033 6.47313 20.989 3.94708C20.2702 2.35336 18.1136 1.08636 15.7126 1.83541C14.9427 2.08761 14.229 2.5157 13.6174 3.09211C13.0057 3.66853 12.5098 4.3805 12.1614 5.18222C12.1072 5.32837 12.0151 5.45337 11.8967 5.54135C11.7783 5.62932 11.6389 5.6763 11.4964 5.6763C11.3539 5.6763 11.2145 5.62932 11.0961 5.54135C10.9777 5.45337 10.8856 5.32837 10.8315 5.18222C10.4857 4.3785 9.99055 3.66486 9.37855 3.08808C8.76655 2.51131 8.0515 2.08442 7.28026 1.83541C6.81298 1.68496 6.32911 1.60719 5.84253 1.60432Z" fill="white"/>
</svg>
