<svg width="27" height="27" viewBox="0 0 27 27" fill="none" xmlns="http://www.w3.org/2000/svg">
<g id="clarity:avatar-line">
<path id="Vector" d="M13.5 12.75C14.5384 12.75 15.5534 12.4421 16.4167 11.8652C17.2801 11.2883 17.953 10.4684 18.3504 9.50909C18.7477 8.54978 18.8517 7.49418 18.6491 6.47578C18.4466 5.45738 17.9465 4.52192 17.2123 3.78769C16.4781 3.05347 15.5426 2.55345 14.5242 2.35088C13.5058 2.14831 12.4502 2.25227 11.4909 2.64963C10.5316 3.04699 9.71166 3.7199 9.13478 4.58326C8.55791 5.44662 8.25 6.46165 8.25 7.5C8.25 8.89239 8.80312 10.2277 9.78769 11.2123C10.7723 12.1969 12.1076 12.75 13.5 12.75ZM13.5 3.75C14.2417 3.75 14.9667 3.96994 15.5834 4.38199C16.2001 4.79405 16.6807 5.37972 16.9645 6.06494C17.2484 6.75016 17.3226 7.50416 17.1779 8.23159C17.0333 8.95902 16.6761 9.62721 16.1517 10.1517C15.6272 10.6761 14.959 11.0333 14.2316 11.1779C13.5042 11.3226 12.7502 11.2484 12.0649 10.9646C11.3797 10.6807 10.794 10.2001 10.382 9.58339C9.96993 8.96671 9.75 8.24168 9.75 7.5C9.75 6.50544 10.1451 5.55161 10.8483 4.84835C11.5516 4.14509 12.5054 3.75 13.5 3.75Z" fill="#FCF5D8"/>
<path id="Vector_2" d="M22.8525 18.2775C21.6497 17.0062 20.2003 15.9937 18.5929 15.3016C16.9855 14.6096 15.2538 14.2527 13.5038 14.2527C11.7537 14.2527 10.022 14.6096 8.4146 15.3016C6.80717 15.9937 5.35777 17.0062 4.155 18.2775C3.89424 18.556 3.74941 18.9234 3.75 19.305V23.25C3.75 23.6478 3.90804 24.0293 4.18934 24.3106C4.47065 24.5919 4.85218 24.75 5.25 24.75H21.75C22.1478 24.75 22.5294 24.5919 22.8107 24.3106C23.092 24.0293 23.25 23.6478 23.25 23.25V19.305C23.2526 18.9245 23.1105 18.5572 22.8525 18.2775ZM21.75 23.25H5.25V19.2975C6.31292 18.1782 7.59247 17.287 9.01077 16.6779C10.4291 16.0689 11.9565 15.7548 13.5 15.7548C15.0435 15.7548 16.5709 16.0689 17.9892 16.6779C19.4075 17.287 20.6871 18.1782 21.75 19.2975V23.25Z" fill="#FCF5D8"/>
</g>
</svg>
