<svg xmlns="http://www.w3.org/2000/svg" width="13" height="14" viewBox="0 0 13 14" fill="none">
    <g clip-path="url(#clip0_321_262)">
        <path style="stroke:black; stroke-width:0.2; fill:none;" d="M12.0325 6.54736C12.1588 6.45323 12.2526 6.32191 12.3005 6.17182C12.3485 6.02173 12.3483 5.8604 12.2999 5.71044C12.2515 5.56047 12.1575 5.42941 12.0308 5.33562C11.9042 5.24183 11.7514 5.19001 11.5939 5.18744L8.53407 5.07184C8.51902 5.07081 8.5046 5.06544 8.49254 5.05639C8.48047 5.04734 8.47128 5.035 8.46607 5.02085L7.40873 2.16501C7.35561 2.01971 7.25912 1.89425 7.13233 1.80561C7.00554 1.71697 6.85457 1.66943 6.69987 1.66943C6.54517 1.66943 6.3942 1.71697 6.26741 1.80561C6.14062 1.89425 6.04413 2.01971 5.99101 2.16501L4.93707 5.03105C4.93186 5.0452 4.92267 5.05754 4.9106 5.06659C4.89854 5.07564 4.88412 5.08101 4.86907 5.08204L1.80924 5.19764C1.6517 5.20021 1.49891 5.25203 1.3723 5.34582C1.24569 5.43961 1.1516 5.57067 1.10324 5.72063C1.05488 5.8706 1.05466 6.03193 1.10262 6.18202C1.15058 6.33211 1.24431 6.46343 1.37067 6.55756L3.77093 8.44446C3.78295 8.45391 3.79192 8.46668 3.79676 8.48118C3.80159 8.49568 3.80207 8.51128 3.79813 8.52605L2.97198 11.4533C2.92917 11.6024 2.93331 11.761 2.98386 11.9076C3.0344 12.0542 3.12888 12.1817 3.25445 12.2727C3.38002 12.3638 3.53058 12.4139 3.68565 12.4163C3.84072 12.4187 3.99277 12.3733 4.12111 12.2862L6.65737 10.5863C6.66987 10.5777 6.68469 10.5731 6.69987 10.5731C6.71505 10.5731 6.72988 10.5777 6.74237 10.5863L9.27863 12.2862C9.40524 12.3763 9.55674 12.4247 9.7121 12.4247C9.86746 12.4247 10.019 12.3763 10.1456 12.2862C10.2712 12.1961 10.3658 12.0692 10.4163 11.9231C10.4668 11.777 10.4708 11.6188 10.4278 11.4703L9.59481 8.53285C9.59039 8.51811 9.59064 8.50236 9.59551 8.48775C9.60037 8.47315 9.60963 8.4604 9.62201 8.45126L12.0325 6.54736Z" fill=""/>
    </g>
    <defs>
        <clipPath id="clip0_321_262">
            <rect width="12.2393" height="12.2393" fill="white" transform="translate(0.47332 0.842529)"/>
        </clipPath>
    </defs>
</svg>