<svg width="69" height="59" viewBox="0 0 69 59" fill="none" xmlns="http://www.w3.org/2000/svg">
<g clip-path="url(#clip0)">
<path d="M67.1095 32.94C68.501 31.23 69.2819 27.888 68.9067 26.944C68.7606 26.566 68.4908 26.258 68.1359 26.06C69.1156 24.034 69.0426 20.81 68.6856 20.108C68.4361 19.626 67.9898 19.292 67.4604 19.18C68.0121 16.888 67.0648 13.892 66.7545 13.426C66.4461 12.95 65.9046 12.644 65.3244 12.61C65.3832 10.176 63.6043 7.422 63.3365 7.104C62.9227 6.608 62.2736 6.366 61.6813 6.462C61.1843 4.418 58.663 0.854 56.9996 0.852C56.454 0.864 55.9144 1.142 55.5554 1.602C55.5412 1.618 55.2734 1.982 54.9894 2.584C54.6243 2.154 54.1801 1.744 53.6567 1.36C51.9244 0.0740001 49.5045 -0.002 48.7681 0.006L48.7661 0L48.5673 0.012C48.0278 0.042 47.5389 0.304 47.2245 0.73C46.908 1.154 46.7985 1.69 46.9243 2.196C46.9263 2.204 47.0724 2.776 47.3949 3.534C41.3846 2.236 32.1916 1.268 21.5625 3.628C21.9114 2.836 22.0736 2.23 22.0797 2.198C22.2055 1.692 22.0939 1.154 21.7775 0.728C21.4611 0.306 20.9742 0.046 20.4489 0.014L20.3413 0.008L20.3393 0.01C19.6578 -0.012 17.1506 0.02 15.3493 1.358C14.8341 1.74 14.3899 2.148 14.0247 2.574C13.7428 1.982 13.4649 1.614 13.4263 1.568C13.0795 1.126 12.5257 0.852 11.978 0.852C10.3674 0.852 7.81968 4.454 7.32676 6.462C6.70605 6.37 6.0752 6.622 5.67965 7.098C5.46058 7.356 3.637 10.194 3.68365 12.61C3.1096 12.636 2.568 12.942 2.25968 13.416C1.94932 13.884 0.99189 16.884 1.54566 19.18C1.02232 19.292 0.567943 19.63 0.324528 20.108C-0.0365375 20.8 -0.117676 24.022 0.866126 26.056C0.51926 26.26 0.245418 26.58 0.0932838 26.962C0.0709708 27.022 0.0304016 27.152 0.0202593 27.222C0.00403167 27.302 -0.00408216 27.388 0.00200321 27.448C-0.0446513 28.518 0.580113 31.35 1.89861 32.95C1.73836 33.116 1.61057 33.326 1.499 33.59C1.11157 34.89 2.78302 37.74 3.82159 38.86C3.99806 39.052 4.25162 39.158 4.55589 39.164C4.27191 39.404 4.08732 39.688 4.01023 40.014C3.99604 40.074 3.96561 40.272 3.96155 40.336C3.89056 41.492 6.23545 44.688 8.31868 45.532C8.21117 45.806 8.1706 46.106 8.20914 46.398C8.36533 47.626 11.2782 50.148 13.3614 50.622C13.3411 50.774 13.3411 50.926 13.3614 51.072C13.3716 51.138 13.4202 51.348 13.4426 51.41C13.8422 52.578 16.9903 54.274 18.9965 54.458C18.9863 54.58 18.9904 54.698 19.0086 54.814C19.0228 54.89 19.0959 55.142 19.1324 55.226C19.7916 56.732 23.7492 57.264 24.5484 57.264C24.8263 57.264 25.09 57.246 25.3415 57.212C25.3739 57.442 25.451 57.676 25.5788 57.91C25.6052 57.954 25.6884 58.072 25.7249 58.12C25.7796 58.184 25.8445 58.246 25.9054 58.29C26.4957 58.792 27.5343 59.006 29.3781 59.006C30.9055 59.006 32.1389 58.738 33.0395 58.212C33.644 57.874 34.1267 57.504 34.504 57.082C34.8793 57.502 35.36 57.874 35.9605 58.208C36.8672 58.738 38.1025 59.004 39.6279 59.004C41.4657 59.004 42.5022 58.79 43.0844 58.302C43.1574 58.246 43.2244 58.182 43.2873 58.108C43.2974 58.096 43.3724 57.98 43.4232 57.906L43.4718 57.828C43.5753 57.636 43.6402 57.426 43.6645 57.21C43.9161 57.246 44.1818 57.262 44.4577 57.262C45.2265 57.262 49.2225 56.71 49.8655 55.238C49.9102 55.146 49.9832 54.888 49.9974 54.798C50.0156 54.69 50.0197 54.576 50.0116 54.456C52.0157 54.272 55.1659 52.568 55.5736 51.392C55.5898 51.34 55.6365 51.138 55.6466 51.078C55.6669 50.93 55.6649 50.774 55.6466 50.62C57.7299 50.144 60.6448 47.622 60.7989 46.398C60.8375 46.102 60.7989 45.804 60.6894 45.53C62.6164 44.728 65.1175 41.55 65.0445 40.3C65.0404 40.254 65.01 40.07 64.9999 40.026C64.941 39.78 64.8295 39.562 64.6692 39.368C66.3143 37.966 67.8722 34.844 67.4969 33.562C67.3955 33.312 67.2656 33.108 67.1095 32.94Z" fill="white"/>
<path d="M45.0013 53.5501C44.6625 53.3921 44.3015 53.308 43.9323 53.298C43.559 53.29 43.2101 53.3461 42.8795 53.4761C42.7294 53.5321 42.6543 53.6981 42.7132 53.8461C42.77 53.9941 42.9404 54.0701 43.0884 54.0101C43.3501 53.9121 43.628 53.8501 43.9161 53.8741C44.2061 53.8821 44.4881 53.9461 44.7538 54.0701C44.7944 54.0881 44.8349 54.0981 44.8775 54.0981C44.9871 54.0981 45.0926 54.0361 45.1412 53.9321C45.2082 53.7901 45.1473 53.6181 45.0013 53.5501Z" fill="#000407"/>
<path d="M37.7435 54.738C37.4007 54.626 37.0477 54.582 36.6866 54.61C36.5264 54.622 36.4067 54.76 36.4169 54.916C36.4311 55.074 36.5588 55.21 36.7272 55.182C37.0071 55.158 37.2871 55.196 37.5609 55.284C37.8327 55.374 38.0863 55.518 38.3114 55.712C38.3662 55.76 38.4352 55.784 38.5021 55.784C38.5832 55.784 38.6623 55.75 38.7212 55.684C38.8266 55.566 38.8165 55.384 38.6948 55.28C38.4108 55.036 38.0903 54.852 37.7435 54.738Z" fill="#000407"/>
<path d="M26.0596 53.4741C25.7208 53.3481 25.3719 53.2941 25.0088 53.2981C24.5423 53.3121 24.169 53.4421 23.9378 53.5501C23.7917 53.6201 23.7309 53.7901 23.7999 53.9341C23.8485 54.0361 23.9561 54.0981 24.0636 54.0981C24.1062 54.0981 24.1488 54.0881 24.1893 54.0701C24.3699 53.9861 24.662 53.8821 25.0271 53.8741C25.305 53.8601 25.5869 53.9101 25.8527 54.0121C26.0068 54.0601 26.1711 53.9941 26.23 53.8461C26.2847 53.6981 26.2097 53.5321 26.0596 53.4741Z" fill="#000407"/>
<path d="M32.2524 54.61C31.8893 54.584 31.5384 54.624 31.1956 54.738C30.8427 54.854 30.5201 55.038 30.2422 55.282C30.1205 55.388 30.1104 55.57 30.2179 55.688C30.2767 55.752 30.3558 55.786 30.437 55.786C30.5059 55.786 30.5749 55.762 30.6297 55.714C30.8487 55.524 31.1064 55.376 31.3782 55.286C31.65 55.198 31.9238 55.162 32.2119 55.184C32.3721 55.204 32.5101 55.078 32.5222 54.918C32.5324 54.76 32.4127 54.622 32.2524 54.61Z" fill="#000407"/>
<path d="M46.6139 41.8161C46.8959 41.2481 47.0764 40.6261 47.188 39.9721C47.2103 39.8421 47.2387 39.7541 47.2934 39.7001C47.3502 39.6461 47.4334 39.6281 47.5714 39.6321C48.2915 39.6661 48.9832 39.5101 49.5227 39.0301C49.7945 38.7881 49.9933 38.4281 50.1272 38.0841C50.2266 37.8281 50.1373 37.5041 49.7905 37.4321C49.4396 37.3601 49.4091 37.6621 49.3402 37.9001C49.1475 38.5581 48.7296 39.0181 48.0521 39.1881C47.4882 39.3301 47.2042 39.3421 47.1839 38.6921C47.1819 38.6141 47.1657 38.5201 47.1352 38.4441C47.0135 38.1381 46.7965 37.9081 46.4516 37.9361C46.407 37.9381 46.3583 37.9541 46.3096 37.9761C46.0338 38.1021 45.9121 38.4161 45.9668 38.7101C45.9912 38.8401 46.0419 38.9521 46.1332 39.0341C46.5003 39.3661 46.6017 39.7181 46.5044 40.1261C46.4314 40.4341 46.3299 40.7561 46.19 41.0321C45.8776 41.6541 45.5672 42.2981 45.1352 42.8361C44.7153 43.3561 44.1311 43.1981 43.9222 42.5581C43.8146 42.2261 43.7984 41.8541 43.8045 41.5001C43.8207 40.6921 43.9648 39.9421 44.5489 39.2861C44.9952 38.7821 45.4171 38.2601 45.7985 37.7081C46.1798 37.1581 46.5206 36.5781 46.8026 35.9661C46.979 35.5821 47.1109 35.1661 47.1839 34.7521C47.2549 34.3501 47.1859 33.9301 46.7843 33.6941C46.3746 33.4541 45.9384 33.5501 45.6098 33.8281C45.265 34.1181 44.9506 34.4681 44.7092 34.8461C43.7193 36.3781 43.1655 38.0921 42.8227 39.8521C42.6016 40.9861 42.0012 41.8521 41.273 42.6701C41.2466 42.6981 41.2162 42.7221 41.1837 42.7421C40.8714 42.9261 40.4373 42.6941 40.4515 42.3341C40.4515 42.3041 40.4576 42.2621 40.4596 42.2341C40.5103 41.5701 40.8186 40.8521 41.1168 40.1721C41.3338 39.6761 41.5833 39.1941 41.8491 38.6781C42.0316 38.3221 41.7314 37.9121 41.3318 37.9681C41.2933 37.9741 41.2568 37.9801 41.2182 37.9861C41.0438 38.0201 40.8227 38.1421 40.7476 38.2861C40.4373 38.8861 40.1797 39.5121 39.8936 40.1241C39.5143 40.9361 39.2567 41.7321 38.851 42.5301C38.7029 42.8201 38.4859 43.0881 38.2546 43.3221C38.1492 43.4261 37.9058 43.4961 37.7719 43.4481C37.64 43.4041 37.5102 43.2001 37.4879 43.0501C37.4554 42.8421 37.4919 42.6101 37.5569 42.4041C37.6725 42.0361 37.8226 41.6801 37.9686 41.3221C38.3723 40.3401 38.78 39.3581 39.1898 38.3781C39.275 38.1761 39.3115 38.0141 39.0234 37.9421C38.5914 37.8341 37.9767 38.0841 37.8165 38.4821C37.5082 39.2501 37.1978 40.0181 36.928 40.7981C36.3682 42.4221 35.3479 43.7281 34.0415 44.8181C33.4289 45.3301 32.8975 45.1101 32.8894 44.3181C32.8813 43.6381 32.9949 42.9481 33.1226 42.2761C33.1713 42.0161 33.3661 41.7501 33.5649 41.5581C35.1065 40.0741 36.4595 38.4541 37.3074 36.4801C37.5325 35.9581 37.709 35.4261 37.7861 34.8621C37.8449 34.4301 37.4656 34.1281 37.0213 34.1781C36.8043 34.2021 36.5832 34.2721 36.3885 34.3721C35.6602 34.7441 35.1369 35.3401 34.7028 36.0041C34.0862 36.9481 33.5567 37.9301 33.1024 38.9461C32.65 39.9621 32.2727 41.0141 31.9644 42.0961C31.8062 42.6521 31.5546 43.2341 31.1834 43.6681C30.51 44.4541 29.7432 45.1661 28.9623 45.8501C28.3193 46.4141 27.5444 46.7741 26.6864 46.9281C26.1001 47.0321 25.5707 46.9741 25.0636 46.5981C24.9175 46.4901 24.7918 46.3701 24.6822 46.2421C24.4672 45.9861 24.3252 45.6941 24.2299 45.3841C24.1832 45.2281 24.1488 45.0681 24.1244 44.9041C23.7816 42.6661 24.2644 40.5961 25.4835 38.6941C25.52 38.6461 26.019 37.9101 26.2381 37.6681C28.9055 34.7221 29.9461 34.5361 30.1266 34.4361C30.4775 34.2721 30.8386 34.2641 31.1287 34.3921C31.4187 34.5201 31.6358 34.7821 31.6946 35.1601C31.7332 35.4061 31.7514 35.6601 31.7453 35.9141C31.7413 36.1681 31.7149 36.4221 31.6642 36.6661C31.3701 38.0921 30.6743 39.3601 29.8264 40.5281C29.4126 41.1001 28.8446 41.5701 28.3071 42.0461C28.0616 42.2641 27.7006 42.4201 27.3781 42.2041C27.0413 41.9781 27.159 41.6101 27.2381 41.2901C27.447 40.4521 27.9683 39.7821 28.4937 39.1201C28.8223 38.7081 28.8649 38.3401 28.6032 38.1341C28.3395 37.9241 27.9927 38.0301 27.6702 38.4901C27.0555 39.3701 26.6924 40.3481 26.7066 41.4281C26.7107 41.7061 26.806 42.0001 26.9217 42.2581C27.1407 42.7481 27.8973 43.0381 28.3984 42.8341C28.9704 42.6021 29.3741 42.3221 29.8447 41.9381C31.4248 40.6481 32.2585 38.9201 32.5121 36.9421C32.5952 36.2921 32.6115 35.5761 32.4654 34.9281C32.3376 34.3701 31.7271 33.9821 31.1023 33.8241C30.6905 33.7201 30.0009 33.7041 29.6012 33.8481C25.9845 35.1501 24.1853 38.0901 24.1853 38.0901C23.2988 39.4041 22.7572 40.8681 22.528 42.4401C22.3373 43.7561 22.3779 45.0581 23.0047 46.2761C23.4611 47.1641 24.1102 47.7601 24.9966 47.9621C25.2928 48.0301 25.6133 48.0521 25.9642 48.0301C26.7107 47.9801 27.3699 47.6901 27.9866 47.2941C29.2483 46.4821 30.3335 45.4741 31.3254 44.3601C31.4187 44.2541 31.5202 44.1561 31.6175 44.0561C31.6743 44.1041 31.7129 44.2841 31.725 44.3641C31.8123 44.9701 31.9847 45.5481 32.6034 45.8181C33.22 46.0881 33.7109 45.7781 34.1612 45.4001C34.2789 45.3021 34.4411 45.1161 34.5487 45.0081C34.7008 44.8521 34.8306 44.7121 34.9483 44.5741C35.1836 44.3001 35.3661 44.0501 35.5771 43.7641C35.6826 43.6201 35.7941 43.4661 35.9219 43.2981C36.0599 43.1141 36.3357 42.6521 36.4899 42.4281C36.4737 42.4741 36.4595 42.5721 36.4473 42.6601C36.4371 42.7481 36.4311 42.8281 36.4311 42.8401C36.427 42.9501 36.4311 43.0301 36.4392 43.1121C36.5305 43.6661 36.7191 44.0961 37.279 44.2701C37.8368 44.4441 38.5731 44.2821 38.991 43.8041C39.2689 43.4981 39.4393 43.2081 39.6705 42.7581C39.705 43.0101 39.7638 43.2781 39.8794 43.4201C40.1208 43.7381 40.1959 43.7301 40.4434 43.7741C40.9444 43.7981 40.9444 43.7461 41.2547 43.5361C41.7071 43.0601 41.7578 42.9661 42.1168 42.4981C42.2568 42.3161 42.4089 42.0721 42.559 41.8901C42.6929 42.2981 42.7984 42.6041 42.9404 42.9141C43.0438 43.1441 43.1737 43.3321 43.3217 43.4781C43.7639 43.9121 44.3786 43.9621 45.0419 43.5961C45.1757 43.5221 45.3056 43.4381 45.4212 43.3401C45.9445 42.9021 46.332 42.3861 46.6139 41.8161ZM45.904 34.7281C45.9831 34.6341 46.1068 34.4761 46.2184 34.4441C46.338 34.4101 46.5003 34.4161 46.6099 34.4721C46.6869 34.5141 46.7762 34.6621 46.7275 34.8841C46.5936 35.3021 46.4496 35.6941 46.2204 36.0621C45.5956 37.0721 44.9141 38.0381 44.2548 39.0241C44.2345 39.0541 44.1595 39.1421 44.0601 39.2621C44.5936 37.7021 44.8329 35.9921 45.904 34.7281ZM34.143 39.2181C34.7109 37.9321 35.2647 36.6361 36.2221 35.5661C36.423 35.3401 36.6522 35.1361 36.8834 34.9421C36.9524 34.8841 37.1106 34.8461 37.1714 34.8841C37.2424 34.9281 37.281 35.0701 37.2749 35.1661C37.2668 35.3141 37.2222 35.4641 37.1654 35.6021C36.4067 37.4461 35.2992 39.0201 33.9685 40.5041C33.8833 40.5781 33.7068 40.7261 33.5933 40.8241C33.792 40.3001 33.9158 39.7301 34.143 39.2181Z" fill="#000407"/>
<path d="M45.1189 44.782C44.7518 44.76 44.3805 44.74 44.0134 44.766C39.8287 45.054 35.7109 45.742 31.6621 46.826C30.6803 47.09 29.7128 47.402 28.8588 47.976C28.7127 48.076 28.5505 48.228 28.4632 48.34C28.3456 48.48 28.305 48.71 28.374 48.838C28.4511 48.984 28.6864 49.138 28.8507 49.134C29.1347 49.128 29.4308 49.032 29.6965 48.922C30.1347 48.74 30.5485 48.502 30.9806 48.308C33.7656 47.058 36.6988 46.294 39.7029 45.812C41.5407 45.518 43.4049 45.38 45.2568 45.168C45.4009 45.152 45.6727 45.082 45.6828 45.066C45.7112 45.048 45.7274 44.954 45.6625 44.918C45.6017 44.89 45.5672 44.878 45.5023 44.856C45.3785 44.81 45.2487 44.788 45.1189 44.782Z" fill="#000407"/>
<path d="M64.9512 33.4161C64.8782 33.4161 64.8051 33.4161 64.726 33.4201C65.1155 33.2461 65.5151 32.9661 65.9248 32.5801C67.3934 31.2441 68.0344 27.7841 67.86 27.3381C67.7626 27.0901 67.5233 26.9201 67.2535 26.9081C67.2352 26.9061 67.217 26.9061 67.1987 26.9061C67.1865 26.9061 66.5983 26.9181 65.8437 27.1261C66.1541 26.8981 66.4887 26.5621 66.8295 26.0781C68.006 24.4741 67.8782 20.9901 67.6835 20.6081C67.5679 20.3841 67.3346 20.2401 67.0811 20.2381C67.079 20.2381 67.075 20.2381 67.0729 20.2381C66.8782 20.2381 65.9553 20.4901 65.0607 21.0901C65.436 20.8041 65.8295 20.3201 66.1703 19.5101C67.0263 17.5961 65.9877 14.2921 65.8092 14.0201C65.6855 13.8301 65.4664 13.7101 65.2372 13.7081C65.2352 13.7081 65.2331 13.7081 65.2311 13.7081C64.9958 13.7081 64.2534 14.0841 63.5556 14.7421C63.8092 14.3781 64.0282 13.8501 64.1479 13.0941C64.5374 11.0341 62.6773 8.0541 62.4643 7.8021C62.3365 7.6481 62.1276 7.5421 61.9247 7.5421C61.9227 7.5421 61.9186 7.5421 61.9166 7.5421C61.6123 7.5441 61.0383 8.0061 60.5373 8.7061C60.6792 8.2561 60.7158 7.7021 60.6427 7.0481C60.5028 5.2441 57.8455 1.9561 57.024 1.9541C57.0219 1.9541 57.0179 1.9541 57.0138 1.9541C56.8049 1.9561 56.5797 2.0881 56.454 2.2521C56.4398 2.2701 55.0766 4.0601 55.6182 6.1441C55.6223 6.1581 55.6284 6.1701 55.6324 6.1841C56.0503 6.4161 56.3465 6.8201 56.3891 7.2961C56.3992 7.4021 56.4479 7.9761 56.4966 8.9121C56.7156 9.2301 56.8698 9.5581 56.8718 9.8721C56.8759 10.2021 56.7664 10.4561 56.5676 10.6381C56.5757 10.8901 56.5818 11.1441 56.5879 11.4181C56.8069 11.3201 56.9733 11.2001 57.0868 11.0881C57.3972 10.7781 57.5575 10.3561 57.5534 9.8661C57.5514 9.7301 57.5351 9.5921 57.5047 9.4501C57.7278 9.6161 57.9631 9.7481 58.2086 9.8421C58.452 9.9341 58.6954 9.9821 58.9307 9.9821C59.3607 9.9821 59.7563 9.8221 60.0545 9.5301C59.809 10.0401 59.6387 10.6101 59.6204 11.1881C59.5961 11.7981 59.6326 12.3601 59.7259 12.8641C59.3283 12.4061 58.7745 11.9941 58.0585 11.6941C57.6568 11.5281 57.2228 11.4461 56.7623 11.4461C56.7035 11.4461 56.6446 11.4481 56.5879 11.4501C56.5919 11.6701 56.596 11.9001 56.6 12.1361C56.6568 12.1341 56.7055 12.1161 56.7623 12.1161C57.101 12.1161 57.452 12.1721 57.7928 12.3121C59.3445 12.9601 60.02 14.2261 59.7867 15.1161C59.6508 15.6481 59.2715 15.9261 58.7076 15.9261C58.45 15.9261 58.1396 15.8441 57.811 15.7241V16.4341C57.8536 16.4481 57.9023 16.4761 57.9429 16.4881C57.9043 16.4921 57.8496 16.5121 57.811 16.5181V17.1481L60.0788 16.7461C59.8374 16.6421 59.5819 16.5581 59.304 16.5101C59.876 16.3361 60.2857 15.9021 60.444 15.2781C60.4926 15.0921 60.5129 14.8921 60.5048 14.6841C60.6833 14.9021 60.8861 15.0881 61.1133 15.2361C61.4318 15.4441 61.7787 15.5541 62.1195 15.5541C62.3507 15.5541 62.7341 15.5021 63.1114 15.2181C62.8396 15.5401 62.6185 15.9221 62.442 16.3301L63.1154 16.2101C63.158 16.2021 63.2006 16.2101 63.2432 16.2061C63.9349 15.0261 65.2088 14.3861 65.2311 14.3861C65.2879 14.3861 66.294 17.5781 65.5415 19.2621C65.081 20.3601 64.5009 20.8201 63.9775 20.8201C63.7321 20.8201 63.5029 20.7061 63.3 20.5221L62.9531 21.0861C63.2615 21.3321 63.6063 21.4901 63.9795 21.4901C64.2148 21.4901 64.5495 21.4341 64.9086 21.2061C64.438 21.5481 63.9856 21.9881 63.6692 22.5441C63.3122 23.1621 63.0627 23.7561 62.9268 24.3141C62.7746 23.7641 62.4724 23.1961 61.9896 22.6621L61.6042 23.2901C61.9146 23.6761 62.1093 24.0701 62.2229 24.4601L63.7017 26.2121C63.3264 25.4201 63.4663 24.2521 64.2635 22.8741C65.1013 21.4061 67.0243 20.9181 67.077 20.9181C67.1216 20.9181 67.365 24.2161 66.2737 25.7041C65.6713 26.5581 65.0871 26.9141 64.6104 26.9141C64.4583 26.9141 64.3203 26.8641 64.1925 26.7941L64.7341 27.4381C64.9126 27.6501 65.008 27.9061 65.0425 28.1701C65.9979 27.6601 67.0283 27.5861 67.1967 27.5861C67.2129 27.5861 67.221 27.5861 67.221 27.5881C67.2677 27.5881 66.8092 30.8701 65.4502 32.1041C64.8051 32.7141 64.2432 32.9701 63.8051 32.9701C63.3528 32.9701 63.0302 32.7001 62.8761 32.2641C62.6408 31.6101 62.7909 30.7701 63.3568 29.8601L62.5089 30.0081C62.4967 30.0341 62.4765 30.0621 62.4643 30.0881C62.4623 30.0661 62.4521 30.0401 62.4501 30.0181L61.7482 30.1421C61.8132 30.9381 61.588 31.6301 61.1336 31.9841C60.9206 32.1541 60.6975 32.2381 60.4723 32.2381C59.9267 32.2381 59.3689 31.7481 58.9165 30.7981C58.8942 30.7521 58.882 30.6961 58.8617 30.6481L58.1802 30.7681C58.2187 30.8721 58.2532 30.9781 58.2978 31.0741C58.5007 31.4961 58.7137 31.8261 58.9267 32.0781C58.4277 31.7561 57.9327 31.5581 57.6305 31.4561C57.5473 31.4221 57.4601 31.4061 57.3708 31.4061C57.2167 31.4061 57.0645 31.4581 56.9388 31.5581C56.8029 31.6701 56.7177 31.8241 56.6954 31.9901L56.671 32.0961C56.5311 32.6941 56.1051 34.5161 56.4154 35.8721C56.4621 36.0581 56.5128 36.2281 56.5655 36.3841C56.3039 36.1701 56.0503 36.0001 55.8373 35.8721C55.7217 35.7901 55.5838 35.7481 55.4438 35.7481C55.3403 35.7481 55.2369 35.7721 55.1395 35.8201C54.9732 35.9021 54.8515 36.0461 54.7967 36.2121L54.7521 36.3141C54.5006 36.8761 53.7358 38.5841 53.7764 39.9881C53.7947 40.4281 53.8515 40.7981 53.9367 41.1081C53.5999 40.5701 53.2084 40.1581 52.965 39.9281C52.8352 39.7921 52.6547 39.7141 52.466 39.7141C52.4031 39.7141 52.3382 39.7221 52.2753 39.7421C52.0989 39.7921 51.9549 39.9101 51.8717 40.0601L51.8068 40.1521C51.4538 40.6541 50.3747 42.1801 50.1333 43.5681C50.0684 43.9721 50.0461 44.3441 50.0664 44.6801C49.8554 44.1481 49.5897 43.7201 49.4152 43.4661C49.4031 43.4461 49.3807 43.4381 49.3665 43.4201C49.2286 43.5981 49.0886 43.7781 48.9345 43.9681C49.2164 44.3981 49.9954 45.7141 49.6221 47.0041C49.1962 48.4401 48.188 49.2221 47.3401 49.2221C47.2671 49.2221 47.1941 49.2161 47.1231 49.2041C46.2204 49.0581 45.975 48.1201 46.5308 46.6941C46.5409 46.6701 46.5571 46.6461 46.5673 46.6221C46.0886 47.1081 45.5672 47.6001 45.0196 48.0901C45.0743 48.6461 45.0297 49.2681 44.7234 49.8261C44.0885 50.9641 43.1189 51.5161 42.3197 51.5161C42.1168 51.5161 41.9262 51.4801 41.7558 51.4101C41.5124 51.3121 41.348 51.1581 41.2365 50.9721C41.0539 51.0881 40.8693 51.2041 40.6807 51.3161C40.8693 51.6201 41.1209 51.8801 41.4982 52.0321C41.7091 52.1181 41.9404 52.1701 42.1838 52.1821C41.9302 52.3341 41.7091 52.5181 41.5245 52.7321C41.1107 53.2141 40.9708 53.7841 41.1351 54.3341C41.1898 54.5141 41.2831 54.7161 41.4454 54.9241C41.056 54.4741 40.5569 54.0481 39.9383 53.7801C39.277 53.4861 38.6401 53.2961 38.0396 53.2141C38.6664 52.9981 39.2648 52.6081 39.7679 52.0721C39.8835 51.9481 39.9707 51.8121 40.06 51.6781C38.7354 52.4281 37.3033 53.0721 35.7678 53.5661C35.6947 53.6061 35.6095 53.6281 35.5426 53.6741C35.0193 54.0241 34.7292 54.5461 34.7515 55.1061C34.7738 55.6561 35.0984 56.4761 36.5203 57.2701C37.2506 57.6941 38.2972 57.9121 39.6218 57.9121C41.1614 57.9121 42.0965 57.7481 42.4069 57.4241L42.411 57.4281C42.4272 57.4081 42.4414 57.3861 42.4556 57.3641C42.4637 57.3501 42.4718 57.3381 42.4779 57.3241C42.555 57.1781 42.5773 57.0041 42.5367 56.8421C42.4718 56.5821 42.1513 55.7841 41.5367 55.0321C41.8552 55.3861 42.3805 55.7401 43.2507 56.0001C43.5915 56.1101 43.9992 56.1681 44.4536 56.1681C45.7397 56.1681 48.5673 55.4281 48.8432 54.7981C48.8655 54.7461 48.8817 54.6901 48.8899 54.6361C48.9406 54.3241 48.5024 53.6041 47.8046 52.9621C48.1779 53.1641 48.6931 53.3221 49.4051 53.3721C49.4801 53.3781 49.5694 53.3821 49.6607 53.3821C51.4579 53.3821 54.318 51.6021 54.5026 51.0681C54.5168 51.0261 54.5269 50.9821 54.531 50.9381C54.5574 50.7461 54.4823 50.5341 54.3525 50.3881C54.3383 50.3721 52.8697 48.7421 50.9345 48.7421C50.9285 48.7421 50.8412 48.7421 50.8331 48.7421C50.2753 48.7541 49.758 48.8241 49.2935 48.9461C49.7215 48.4861 50.0684 47.8861 50.2733 47.1921C50.4071 46.7301 50.4234 46.2681 50.3706 45.8321C50.4295 45.9381 50.4984 46.0341 50.5735 46.1221C50.8879 46.4841 51.322 46.6781 51.8291 46.6781C51.8433 46.6781 51.9325 46.6761 51.9447 46.6741C52.2084 46.6601 52.464 46.5941 52.7054 46.4841C52.5106 46.7561 52.3687 47.0521 52.2835 47.3641C52.1313 47.9401 52.2287 48.4881 52.5573 48.9061C52.8251 49.2461 53.3667 49.6521 54.4296 49.6521C54.6568 49.6521 54.9063 49.6341 55.1801 49.5921C57.0585 49.3461 59.6163 46.8121 59.6833 46.2681C59.7056 46.0881 59.6528 45.9041 59.5352 45.7621C59.3506 45.5381 57.9713 44.6701 56.4844 44.6701C56.1842 44.6701 55.888 44.7061 55.6081 44.7741C54.9407 44.9341 54.3525 45.1661 53.8616 45.4581C54.2409 44.8961 54.4985 44.1761 54.5655 43.3821C54.602 42.9141 54.529 42.4721 54.3931 42.0661C54.8515 42.6441 55.4397 42.7141 55.6892 42.7141C55.8515 42.7141 56.0199 42.6901 56.1862 42.6441C56.4945 42.5601 56.7745 42.4061 57.0219 42.1961C56.9225 42.4561 56.8637 42.7221 56.8475 42.9921C56.8191 43.5141 56.9793 43.9881 57.3019 44.3221C57.5372 44.5681 57.9713 44.8581 58.7076 44.8581C59.1356 44.8581 59.6204 44.7581 60.1478 44.5601C61.9267 43.9301 63.9552 40.9461 63.9248 40.4061C63.9228 40.3661 63.9146 40.3241 63.9065 40.2861C63.7726 39.7321 62.6611 39.5241 61.9572 39.4481C62.444 39.3901 62.9795 39.1821 63.5515 38.8241C65.1277 37.8741 66.6287 34.5821 66.4604 33.9901C66.3062 33.6061 66.1358 33.4161 64.9512 33.4161ZM58.9287 9.3061C58.7766 9.3061 58.6143 9.2741 58.45 9.2121C57.5108 8.8541 56.7136 7.7361 56.2755 5.9761C55.8191 4.2161 56.9976 2.6241 57.0219 2.6241C57.1092 2.6241 59.8212 5.2401 59.9673 7.1201C60.1377 8.6401 59.6224 9.3061 58.9287 9.3061ZM63.4785 12.9901C63.2676 14.3161 62.7118 14.8781 62.1215 14.8781C61.9105 14.8781 61.6955 14.8061 61.4906 14.6721C60.6914 14.1501 60.2289 12.9381 60.2979 11.2041C60.3527 9.4741 61.8943 8.2121 61.9227 8.2121C61.9896 8.2121 63.8213 11.1761 63.4785 12.9901ZM41.8815 56.9981C41.8998 57.0241 40.849 57.2281 39.6259 57.2281C38.6664 57.2281 37.6015 57.1021 36.8611 56.6721C35.2018 55.7461 35.1329 54.7461 35.93 54.2141C36.3073 53.9601 36.7982 53.8241 37.3743 53.8241C38.0396 53.8241 38.8206 54.0041 39.6685 54.3821C41.2568 55.0721 41.8896 56.9861 41.8815 56.9981ZM45.3198 50.1381C45.549 49.7181 45.6666 49.2781 45.7072 48.8421C45.7376 48.9161 45.7721 48.9881 45.8127 49.0581C46.0642 49.4921 46.4821 49.7661 47.0156 49.8541C47.119 49.8721 47.2306 49.8821 47.3421 49.8821C47.4091 49.8821 47.476 49.8781 47.543 49.8721C47.3361 50.0761 47.1657 50.3061 47.0379 50.5601C46.7458 51.1321 46.7437 51.7241 47.0338 52.2261C47.0784 52.3041 47.1352 52.3861 47.2042 52.4701C46.7498 52.1561 46.2346 51.9061 45.693 51.8001C45.2102 51.7021 44.7417 51.6541 44.3035 51.6541C44.1777 51.6541 44.056 51.6581 43.9364 51.6661C44.4759 51.3101 44.9587 50.7881 45.3198 50.1381ZM48.2205 54.5201C48.2489 54.5501 46.1737 55.4861 44.4556 55.4861C44.0966 55.4861 43.7538 55.4461 43.4495 55.3481C41.7152 54.8281 41.4353 53.8661 42.0458 53.1541C42.5002 52.6241 43.2791 52.3221 44.3015 52.3221C44.6889 52.3221 45.1088 52.3661 45.5591 52.4561C47.2042 52.7761 48.2225 54.5041 48.2205 54.5201ZM50.8575 49.4021C50.8838 49.4021 50.9102 49.4021 50.9366 49.4021C52.5532 49.4021 53.8616 50.8241 53.8596 50.8381C53.892 50.8641 51.4437 52.7001 49.6607 52.7001C49.5897 52.7001 49.5207 52.6981 49.4517 52.6921C47.691 52.5701 47.2184 51.6941 47.6444 50.8621C48.0805 50.0081 49.2043 49.4361 50.8575 49.4021ZM55.7765 45.4141C56.0138 45.3561 56.2532 45.3301 56.4864 45.3301C57.8333 45.3301 59.0139 46.1621 59.0098 46.1741C59.0524 46.1901 56.8536 48.6841 55.0787 48.9181C54.8434 48.9541 54.6263 48.9701 54.4296 48.9701C53.1841 48.9701 52.7378 48.3021 52.9427 47.5221C53.1922 46.5961 54.1618 45.8001 55.7765 45.4141ZM53.8941 43.3141C53.7541 44.9341 52.7967 45.9481 51.9102 45.9941C51.8839 45.9941 51.8595 45.9961 51.8352 45.9961C50.9792 45.9961 50.5755 45.1421 50.8088 43.6721C51.0684 42.1901 52.4721 40.4181 52.4721 40.3761C52.4883 40.4041 54.0158 41.7081 53.8941 43.3141ZM60.4784 32.9021C60.8598 32.9021 61.2371 32.7621 61.5677 32.5001C61.7746 32.3381 61.9592 32.1221 62.1053 31.8661C62.1235 32.0781 62.1702 32.2841 62.2391 32.4801C62.4562 33.0881 62.9105 33.4921 63.4826 33.6021C63.0079 33.7301 62.5191 33.9381 62.0769 34.2701C61.5008 34.6961 61.0342 35.1561 60.6853 35.6321C60.73 35.1121 60.6691 34.5361 60.4703 33.9261C60.3101 33.4481 60.0423 33.0481 59.7259 32.7201C60.0241 32.8641 60.2857 32.9021 60.4784 32.9021ZM58.1031 38.8901C58.0666 38.5801 57.9855 38.2921 57.8719 38.0241C58.1254 38.1361 58.3526 38.1601 58.5068 38.1601C58.7806 38.1601 59.0545 38.0901 59.3242 37.9541C59.5575 37.8361 59.7786 37.6641 59.9693 37.4421C59.9571 37.6161 59.9652 37.7881 59.9875 37.9561C60.0951 38.7021 60.5616 39.2301 61.2229 39.3981C60.6285 39.4161 60.0849 39.5421 59.6042 39.7741C58.9003 40.1041 58.3141 40.5021 57.8658 40.9461C58.095 40.3421 58.1883 39.6321 58.1031 38.8901ZM57.3749 32.0701C57.4053 32.0901 59.3303 32.6381 59.8253 34.1301C60.3182 35.6481 59.8151 36.9541 59.0078 37.3601C58.8354 37.4481 58.667 37.4921 58.5047 37.4921C57.8922 37.4921 57.3688 36.8761 57.0828 35.7201C56.7562 34.2801 57.3911 32.1081 57.3749 32.0701ZM56.0097 41.9861C55.9002 42.0161 55.7947 42.0301 55.6953 42.0301C54.9874 42.0301 54.5188 41.2941 54.4641 39.9601C54.4215 38.4681 55.46 36.4541 55.4519 36.4101C55.4783 36.4361 57.2451 37.3801 57.4297 38.9641C57.6122 40.5681 56.8698 41.7541 56.0097 41.9861ZM63.2493 40.4341C63.2899 40.4441 61.6103 43.3241 59.9105 43.9241C59.4419 44.1001 59.0423 44.1781 58.7116 44.1781C57.882 44.1781 57.4946 43.6841 57.5311 43.0181C57.5838 42.0661 58.383 41.0881 59.9003 40.3761C60.3831 40.1441 60.8983 40.0661 61.377 40.0661C62.3973 40.0661 63.2473 40.4241 63.2493 40.4341ZM63.1905 38.2481C62.5901 38.6241 62.087 38.7841 61.6935 38.7841C61.0931 38.7841 60.7421 38.4141 60.663 37.8641C60.5312 36.9301 61.1296 35.8121 62.4927 34.8041C63.2777 34.2141 64.2635 34.0881 64.9552 34.0881C65.4583 34.0881 65.8072 34.1561 65.8092 34.1601C65.8518 34.1601 64.7504 37.3061 63.1905 38.2481Z" fill="#000407"/>
<path d="M48.8027 3.91005C49.1211 3.98805 49.4457 4.06805 49.7418 4.14605C48.9751 3.03405 48.6667 1.77805 48.6667 1.77805C48.6667 1.77805 48.7601 1.77205 48.9203 1.77205C49.5735 1.77205 51.3463 1.86205 52.5715 2.77205C54.2268 3.99805 54.4276 4.95605 54.1233 5.53605C54.3586 5.62605 54.5614 5.70205 54.7379 5.77405C54.8657 5.50805 54.9428 5.22405 54.9205 4.91605C54.8596 4.04605 54.2044 3.14405 52.9792 2.23605C51.5999 1.21205 49.6789 1.10205 48.9183 1.10205C48.7317 1.10205 48.6241 1.10805 48.6241 1.10805C48.4233 1.12005 48.2367 1.22005 48.1191 1.37805C47.9994 1.53805 47.9568 1.74005 48.0034 1.93405C48.0217 1.99805 48.2529 2.91605 48.8027 3.91005Z" fill="#000407"/>
<path d="M14.9213 5.61805C14.5521 5.05005 14.6921 4.05805 16.4264 2.77205C17.6536 1.86205 19.4265 1.77205 20.0797 1.77205C20.2399 1.77205 20.3332 1.77805 20.3332 1.77805C20.3332 1.77805 19.9823 3.17005 19.1202 4.32205C19.4488 4.23405 19.7754 4.15205 20.102 4.07005C20.7166 3.01605 20.9803 2.00005 20.9945 1.93405C21.0412 1.74205 20.9986 1.53805 20.8789 1.37805C20.7592 1.22005 20.5726 1.12005 20.3738 1.10805C20.3738 1.10805 20.2663 1.10205 20.0797 1.10205C19.317 1.10205 17.398 1.21205 16.0187 2.23805C14.7935 3.14605 14.1403 4.04605 14.0775 4.91805C14.0531 5.24805 14.1485 5.54805 14.2945 5.82805C14.5034 5.75205 14.7103 5.69205 14.9213 5.61805Z" fill="#000407"/>
<path d="M3.19276 34.16C3.19478 34.154 3.54368 34.088 4.04674 34.088C4.73844 34.088 5.72427 34.216 6.50928 34.804C6.53768 34.824 6.55391 34.846 6.58231 34.866L6.93932 34.284C6.9312 34.278 6.92512 34.272 6.917 34.266C6.47683 33.936 5.99203 33.728 5.51737 33.6C6.08939 33.49 6.54377 33.088 6.76081 32.478C6.83181 32.282 6.87643 32.076 6.89469 31.864C7.04074 32.122 7.22736 32.338 7.43629 32.502C7.57422 32.612 7.72433 32.688 7.87646 32.752L7.94137 32.648L5.7121 30.004C6.19893 30.854 6.34092 31.638 6.11779 32.256C5.9616 32.69 5.63908 32.962 5.18876 32.962C4.75061 32.962 4.19076 32.706 3.54368 32.096C2.18461 30.862 1.72821 27.58 1.77487 27.58C1.77487 27.58 1.78298 27.578 1.79921 27.578C2.00611 27.578 3.50717 27.692 4.58022 28.588C4.39563 28.298 4.33478 27.97 4.38346 27.634C4.35101 27.616 4.32058 27.59 4.28812 27.574C4.32261 27.576 4.35506 27.578 4.38955 27.578C4.40374 27.498 4.38346 27.418 4.41186 27.34C4.493 27.122 4.63499 26.942 4.80335 26.79C4.67556 26.856 4.54168 26.908 4.38955 26.908C3.91286 26.908 3.32866 26.552 2.72824 25.698C1.63693 24.21 1.88034 20.912 1.92497 20.912C1.97771 20.912 3.90069 21.402 4.73844 22.868C5.59445 24.348 5.72021 25.606 5.23136 26.394C5.15427 26.52 5.05285 26.604 4.95143 26.686C5.12385 26.566 5.31047 26.46 5.52548 26.422L5.98594 26.342C6.02043 26.256 6.07316 26.176 6.09751 26.086C6.1259 26.168 6.1827 26.226 6.21921 26.302L6.92309 26.178C6.45451 25.442 6.53565 24.188 7.52351 23.098C8.22941 22.334 9.35318 22.208 10.0388 22.208C10.3755 22.208 10.6088 22.238 10.6311 22.238C10.6311 22.238 10.6311 22.238 10.6331 22.238C10.5946 22.266 10.3106 24.504 9.44446 25.666C9.42012 25.698 9.39578 25.718 9.37144 25.748L10.2599 25.592C10.8583 24.524 11.1443 23.148 11.2559 22.574L11.2822 22.438C11.3269 22.302 11.3269 22.152 11.2741 22.012C11.1768 21.746 10.9212 21.566 10.6331 21.566C10.6331 21.566 10.6331 21.566 10.6311 21.566C10.5561 21.556 10.3329 21.536 10.0388 21.536C9.95563 21.536 9.87044 21.538 9.78118 21.542C10.0226 21.404 10.27 21.23 10.5216 21.02C11.3999 20.258 12.0571 18.972 12.4953 18.006C12.477 17.618 12.4669 17.254 12.4527 16.88C12.3796 16.822 12.3066 16.766 12.2174 16.74C11.7772 16.602 11.3857 16.526 11.0591 16.486C11.3796 16.4 11.7204 16.266 12.0794 16.08C12.195 16.018 12.3066 15.918 12.4202 15.842C12.4141 15.566 12.4121 15.308 12.408 15.042C12.195 15.214 11.98 15.37 11.763 15.488C11.195 15.782 10.698 15.924 10.2964 15.924C9.73453 15.924 9.35521 15.646 9.2193 15.114C8.98603 14.224 9.6615 12.958 11.2133 12.31C11.5541 12.17 11.9029 12.114 12.2417 12.114C12.2985 12.114 12.3492 12.132 12.404 12.134C12.408 11.9 12.4121 11.67 12.4161 11.448C12.3573 11.446 12.2985 11.444 12.2397 11.444C11.7812 11.444 11.3451 11.526 10.9496 11.69C10.2295 11.992 9.67368 12.404 9.2761 12.862C9.37144 12.356 9.40795 11.792 9.38361 11.18C9.36535 10.604 9.19699 10.038 8.95357 9.53202C9.25176 9.82202 9.64528 9.98002 10.0733 9.98002C10.3086 9.98002 10.552 9.93402 10.7954 9.84002C11.0429 9.74602 11.2782 9.61402 11.5013 9.44802C11.4709 9.59002 11.4547 9.73002 11.4526 9.86602C11.4465 10.354 11.6088 10.776 11.9192 11.086C12.0328 11.198 12.1991 11.318 12.4161 11.416C12.4222 11.142 12.4303 10.886 12.4385 10.636C12.2397 10.454 12.1301 10.2 12.1342 9.87002C12.1362 9.55602 12.2904 9.23002 12.5095 8.91002C12.5602 7.97402 12.6089 7.40202 12.617 7.29402C12.6596 6.81202 12.9537 6.40002 13.3756 6.17202C13.3776 6.16002 13.3837 6.15002 13.3878 6.13802C13.9334 4.04003 12.5561 2.25803 12.5439 2.24003C12.4141 2.07603 12.191 1.95203 11.9821 1.95203C11.1585 1.95203 8.50123 5.23803 8.35924 7.06802C8.28824 7.70402 8.32272 8.25202 8.46269 8.69802C7.96369 8.00202 7.38558 7.54202 7.08334 7.54202C6.88049 7.54202 6.67156 7.64802 6.54174 7.80202C6.34701 8.02002 4.46257 11.05 4.85203 13.112C4.96968 13.852 5.18267 14.37 5.43014 14.73C4.73438 14.08 3.99805 13.708 3.76478 13.708C3.53557 13.708 3.31446 13.828 3.19073 14.018C3.0102 14.29 1.9696 17.59 2.83372 19.524C3.16436 20.312 3.54976 20.79 3.91692 21.076C3.02845 20.484 2.11767 20.238 1.92294 20.238C1.66736 20.238 1.43206 20.382 1.31643 20.606C1.11967 20.986 0.989852 24.47 2.1765 26.088C2.51322 26.566 2.84386 26.898 3.15219 27.126C2.39963 26.918 1.81138 26.908 1.80124 26.908C1.78298 26.908 1.76472 26.908 1.74647 26.91C1.48074 26.922 1.24138 27.088 1.14402 27.336C1.14199 27.344 1.13793 27.352 1.1359 27.362C1.12779 27.382 1.1217 27.402 1.11765 27.422L1.12373 27.424C1.03448 28.12 1.67953 31.308 3.08728 32.588C3.49094 32.968 3.88852 33.246 4.27392 33.42C4.19684 33.418 4.12179 33.416 4.05079 33.416C2.8682 33.416 2.69578 33.606 2.57002 33.896C2.40572 34.452 3.40372 36.774 4.64513 38.112C4.67962 38.012 4.7141 37.912 4.7709 37.82L4.97577 37.486C3.87432 36.202 3.15624 34.16 3.19276 34.16ZM9.02863 7.11802C9.17467 5.23803 11.8867 2.62203 11.9739 2.62203C11.9739 2.62203 11.9739 2.62203 11.976 2.62203C12.0023 2.62203 13.1788 4.21403 12.7224 5.97402C12.2823 7.73402 11.4891 8.85202 10.5479 9.21002C10.3836 9.27202 10.2214 9.30402 10.0692 9.30402C9.37752 9.30602 8.86229 8.64002 9.02863 7.11802ZM7.01843 22.642C6.52957 23.182 6.2253 23.754 6.07114 24.308C5.9332 23.748 5.68573 23.152 5.32669 22.532C5.01431 21.984 4.57008 21.548 4.10556 21.208C4.46054 21.428 4.78712 21.482 5.01837 21.482C5.47477 21.482 5.90277 21.29 6.25573 20.928C6.43829 20.74 6.58839 20.524 6.7101 20.286C6.74661 20.538 6.82166 20.772 6.9312 20.978C7.19287 21.472 7.60059 21.788 8.09756 21.892C7.70607 22.058 7.33284 22.3 7.01843 22.642ZM10.4283 17.114C11.2863 17.114 12.0105 17.382 12.0328 17.384C11.9902 17.406 11.1808 19.548 10.0773 20.504C9.47286 21.01 8.91909 21.258 8.46877 21.258C8.06308 21.258 7.74056 21.058 7.53163 20.666C7.10159 19.856 7.44846 18.504 8.77304 17.576C9.28421 17.222 9.88261 17.114 10.4283 17.114ZM9.69193 16.506C9.19902 16.592 8.76087 16.766 8.38155 17.03C7.75678 17.468 7.32067 17.982 7.0448 18.51C7.02654 17.96 6.91903 17.356 6.72024 16.71C6.55188 16.144 6.24761 15.642 5.8906 15.22C6.26587 15.498 6.64519 15.55 6.87441 15.55C7.21519 15.55 7.56408 15.44 7.88052 15.232C8.10973 15.084 8.31258 14.898 8.49109 14.68C8.48297 14.89 8.50326 15.092 8.55194 15.28C8.71219 15.898 9.12193 16.332 9.69193 16.506ZM7.07522 8.21202C7.10362 8.21202 8.64525 9.47402 8.70002 11.204C8.77101 12.938 8.3065 14.15 7.50728 14.672C7.30241 14.806 7.08739 14.878 6.87643 14.878C6.28615 14.878 5.73238 14.316 5.5194 12.99C5.17659 11.176 7.01031 8.21202 7.07522 8.21202ZM3.45443 19.254C2.70187 17.57 3.70798 14.378 3.76275 14.378C3.79115 14.378 5.58228 15.268 6.06911 16.902C6.57014 18.536 6.41395 19.792 5.76281 20.464C5.54577 20.688 5.28815 20.812 5.01634 20.812C4.49503 20.812 3.91489 20.352 3.45443 19.254Z" fill="#000407"/>
<path d="M33.4513 53.6581C33.3843 53.6141 33.3032 53.5921 33.2322 53.5541C31.6966 53.0601 30.2625 52.4141 28.9359 51.6641C29.0252 51.7981 29.1104 51.9341 29.226 52.0561C29.7311 52.5941 30.3295 52.9861 30.9563 53.2021C30.3558 53.2841 29.7169 53.4761 29.0515 53.7701C28.443 54.0361 27.9481 54.4541 27.5606 54.8981C27.7168 54.6961 27.8081 54.4981 27.8588 54.3221C28.0231 53.7721 27.8852 53.2041 27.4693 52.7201C27.2868 52.5061 27.0657 52.3221 26.8121 52.1701C27.0555 52.1561 27.2868 52.1061 27.5018 52.0181C27.875 51.8681 28.1286 51.6081 28.3152 51.3041C28.1266 51.1901 27.942 51.0761 27.7594 50.9601C27.6458 51.1461 27.4835 51.3001 27.2401 51.3981C27.0677 51.4681 26.877 51.5041 26.6762 51.5041C25.879 51.5041 24.9074 50.9501 24.2725 49.8141C24.0595 49.4241 23.9966 49.0041 23.9804 48.5961C23.4814 48.3441 23.0514 47.9721 22.6842 47.4861C22.8688 48.4481 22.5868 49.0761 21.8688 49.1921C21.7978 49.2041 21.7248 49.2101 21.6517 49.2101C20.8038 49.2101 19.7957 48.4281 19.3697 46.9921C18.9944 45.7021 19.7734 44.3861 20.0574 43.9561C19.9032 43.7661 19.7632 43.5861 19.6233 43.4061C19.6111 43.4221 19.5928 43.4301 19.5807 43.4461C19.4022 43.7081 19.1344 44.1401 18.9235 44.6701C18.9437 44.3361 18.9214 43.9661 18.8565 43.5661C18.6111 42.1681 17.534 40.6401 17.179 40.1381L17.1161 40.0481C17.0289 39.8961 16.8849 39.7781 16.7064 39.7301C16.6455 39.7141 16.5826 39.7041 16.5218 39.7041C16.3351 39.7041 16.1566 39.7781 16.0288 39.9121C15.7793 40.1501 15.3879 40.5621 15.0532 41.0961C15.1363 40.7881 15.1931 40.4221 15.2114 39.9861C15.2256 39.4801 15.1221 38.9481 14.9903 38.4321L14.3331 38.5481C14.4568 39.0221 14.544 39.5121 14.5318 39.9581C14.4771 41.2901 14.0065 42.0281 13.2985 42.0281C13.1971 42.0281 13.0937 42.0141 12.9841 41.9841C12.1383 41.7561 11.4161 40.6001 11.5662 39.0381L10.8908 39.1581C10.8543 39.7981 10.9273 40.4161 11.1281 40.9421C10.6798 40.4981 10.0916 40.0981 9.38565 39.7661C9.18078 39.6681 8.95967 39.5981 8.73046 39.5381L6.26588 39.9741C6.17866 39.9881 6.09346 39.9961 6.00827 39.9961C5.81557 39.9961 5.63098 39.9341 5.45653 39.8621C5.27397 39.9741 5.12589 40.1021 5.08329 40.2701C5.07315 40.3081 5.06706 40.3501 5.06504 40.3901C5.03461 40.9281 7.06104 43.9141 8.85216 44.5481C9.36739 44.7421 9.85219 44.8421 10.2802 44.8421C11.0165 44.8421 11.4526 44.5501 11.6859 44.3061C12.0084 43.9701 12.1687 43.4961 12.1383 42.9741C12.1241 42.7041 12.0652 42.4381 11.9638 42.1781C12.2113 42.3901 12.4932 42.5441 12.8016 42.6281C12.9659 42.6721 13.1342 42.6961 13.2965 42.6961C13.546 42.6961 14.1322 42.6281 14.5907 42.0521C14.4568 42.4561 14.3838 42.8941 14.4183 43.3581C14.4872 44.1561 14.7448 44.8781 15.1262 45.4421C14.6333 45.1501 14.043 44.9161 13.3716 44.7561C13.0957 44.6881 12.8016 44.6541 12.5014 44.6541C11.0145 44.6541 9.63312 45.5221 9.45056 45.7461C9.33494 45.8881 9.28017 46.0721 9.30451 46.2521C9.37145 46.7941 11.9293 49.3281 13.8199 49.5761C14.0815 49.6161 14.3331 49.6341 14.5602 49.6341C15.6232 49.6341 16.1648 49.2281 16.4305 48.8881C16.7591 48.4701 16.8565 47.9221 16.7043 47.3481C16.6212 47.0341 16.4771 46.7381 16.2824 46.4641C16.5238 46.5761 16.7814 46.6421 17.0451 46.6561C17.0573 46.6561 17.1465 46.6581 17.1567 46.6581C17.6638 46.6581 18.0979 46.4661 18.4143 46.1021C18.4894 46.0141 18.5583 45.9181 18.6172 45.8121C18.5624 46.2461 18.5806 46.7061 18.7145 47.1681C18.9194 47.8621 19.2663 48.4681 19.6963 48.9261C19.2298 48.8021 18.7105 48.7321 18.1486 48.7221C18.1445 48.7221 18.0593 48.7221 18.0553 48.7221C16.1201 48.7221 14.6515 50.3501 14.6373 50.3681C14.5075 50.5121 14.4324 50.7261 14.4588 50.9181C14.4649 50.9621 14.475 51.0061 14.4892 51.0481C14.6738 51.5821 17.534 53.3621 19.3312 53.3621C19.4225 53.3621 19.5117 53.3581 19.601 53.3501C20.3048 53.3021 20.816 53.1441 21.1852 52.9441C20.4894 53.5861 20.0533 54.3041 20.102 54.6161C20.1101 54.6721 20.1263 54.7281 20.1486 54.7781C20.4225 55.4081 23.2522 56.1481 24.5382 56.1481C24.9906 56.1481 25.4003 56.0901 25.7553 55.9761C26.6032 55.7221 27.1245 55.3741 27.4409 55.0281C26.8344 55.7741 26.518 56.5621 26.4551 56.8221C26.4145 56.9841 26.4348 57.1561 26.5139 57.3041C26.52 57.3181 26.5281 57.3301 26.5383 57.3421C26.5525 57.3641 26.5667 57.3861 26.5829 57.4061L26.587 57.4021C26.8973 57.7261 27.8324 57.8901 29.372 57.8901C30.6966 57.8901 31.7433 57.6721 32.4817 57.2421C33.8935 56.4541 34.218 55.6321 34.2403 55.0841C34.2647 54.5301 33.9766 54.0081 33.4513 53.6581ZM10.2863 44.1781C9.95565 44.1781 9.55807 44.1001 9.08747 43.9241C7.38762 43.3221 5.70806 40.4421 5.74863 40.4341C5.75065 40.4241 6.60058 40.0661 7.61886 40.0661C8.09758 40.0661 8.61484 40.1461 9.09761 40.3761C10.6129 41.0881 11.4121 42.0661 11.4668 43.0181C11.5054 43.6841 11.118 44.1781 10.2863 44.1781ZM14.5663 48.9721C14.3696 48.9721 14.1546 48.9561 13.9172 48.9201C12.1444 48.6861 9.9455 46.1921 9.9881 46.1761C9.98607 46.1621 11.1646 45.3321 12.5115 45.3321C12.7448 45.3321 12.9841 45.3581 13.2215 45.4161C14.8361 45.8021 15.8077 46.5981 16.0532 47.5261C16.2581 48.3021 15.8118 48.9721 14.5663 48.9721ZM17.1648 45.9961C17.1404 45.9961 17.1141 45.9961 17.0897 45.9941C16.2033 45.9481 15.2459 44.9341 15.1059 43.3141C14.9842 41.7101 16.5116 40.4061 16.5278 40.3781C16.5278 40.4201 17.9315 42.1921 18.1912 43.6741C18.4265 45.1421 18.0208 45.9961 17.1648 45.9961ZM21.6558 49.8821C21.7674 49.8821 21.8789 49.8721 21.9864 49.8541C22.5159 49.7681 22.9317 49.4921 23.1852 49.0601C23.2258 48.9921 23.2603 48.9201 23.2907 48.8461C23.3313 49.2801 23.4489 49.7181 23.6761 50.1361C24.0413 50.7881 24.524 51.3121 25.0656 51.6661C24.9439 51.6581 24.8202 51.6541 24.6964 51.6541C24.2583 51.6541 23.7897 51.7041 23.3029 51.8021C22.7633 51.9061 22.2481 52.1561 21.7957 52.4701C21.8647 52.3881 21.9195 52.3061 21.9661 52.2261C22.2562 51.7241 22.2542 51.1321 21.9601 50.5601C21.8302 50.3081 21.6619 50.0781 21.455 49.8741C21.5199 49.8781 21.5888 49.8821 21.6558 49.8821ZM19.5462 52.6901C19.4772 52.6961 19.4083 52.6981 19.3373 52.6981C17.5563 52.6981 15.1059 50.8621 15.1404 50.8361C15.1384 50.8221 16.4447 49.4001 18.0634 49.4001C18.0898 49.4001 18.1161 49.4001 18.1425 49.4001C19.7977 49.4341 20.9195 50.0061 21.3535 50.8581C21.7775 51.6921 21.3069 52.5681 19.5462 52.6901ZM25.5484 55.3481C25.2441 55.4461 24.9013 55.4861 24.5443 55.4861C22.8282 55.4861 20.7511 54.5501 20.7795 54.5201C20.7775 54.5061 21.7957 52.7761 23.4388 52.4561C23.8891 52.3661 24.309 52.3221 24.6964 52.3221C25.7188 52.3221 26.4997 52.6261 26.9521 53.1541C27.5627 53.8661 27.2827 54.8281 25.5484 55.3481ZM32.1388 56.6721C31.3964 57.1041 30.3335 57.2281 29.3741 57.2281C28.1489 57.2281 27.1002 57.0241 27.1164 56.9981C27.1083 56.9861 27.7391 55.0721 29.3294 54.3821C30.1794 54.0041 30.9583 53.8241 31.6236 53.8241C32.1997 53.8241 32.6906 53.9581 33.0679 54.2141C33.8671 54.7441 33.7981 55.7441 32.1388 56.6721Z" fill="#000407"/>
<path d="M58.2836 14.8441C58.3384 14.9321 58.4338 14.9801 58.5311 14.9801C58.5839 14.9801 58.6366 14.9661 58.6853 14.9361C58.8212 14.8521 58.8638 14.6761 58.7786 14.5421C58.5879 14.2381 58.3425 13.9781 58.0463 13.7701C57.665 13.5001 57.2897 13.3801 57.0402 13.3281C56.9814 13.3121 56.9286 13.3341 56.8779 13.3541C57.024 13.4101 57.17 13.4641 57.2917 13.5641C57.5088 13.7441 57.6386 13.9881 57.7197 14.2501C57.9408 14.4081 58.1376 14.6141 58.2836 14.8441Z" fill="#000407"/>
<path d="M61.4926 11.01C61.4176 11.252 61.3344 11.636 61.3811 12.102C61.4196 12.46 61.5231 12.802 61.6914 13.12C61.7442 13.218 61.8456 13.274 61.949 13.274C61.9937 13.274 62.0423 13.262 62.0829 13.24C62.2269 13.166 62.2797 12.994 62.2067 12.852C62.0728 12.6 61.9896 12.328 61.9592 12.044C61.9227 11.676 61.9876 11.372 62.0484 11.182C62.0951 11.03 62.0099 10.87 61.8578 10.82C61.6975 10.78 61.5413 10.86 61.4926 11.01Z" fill="#000407"/>
<path d="M64.5009 18.9841C64.4745 18.9021 64.4502 18.7901 64.4319 18.6681L64.0465 19.2981C64.0952 19.3361 64.1561 19.3561 64.221 19.3561C64.2494 19.3561 64.2778 19.3521 64.3062 19.3421C64.4624 19.2961 64.5496 19.1361 64.5009 18.9841Z" fill="#000407"/>
<path d="M64.8599 25.586C64.864 25.586 64.87 25.586 64.8741 25.584C65.0343 25.578 65.1581 25.444 65.152 25.284C65.1378 24.994 65.1804 24.714 65.2757 24.448C65.3731 24.174 65.5232 23.924 65.724 23.706C65.8315 23.588 65.8234 23.406 65.7037 23.3C65.5861 23.192 65.3974 23.198 65.292 23.32C65.0404 23.596 64.8477 23.912 64.726 24.26C64.6063 24.594 64.5556 24.948 64.5719 25.312C64.5759 25.464 64.7037 25.586 64.8599 25.586Z" fill="#000407"/>
<path d="M60.3242 31.142C60.3384 31.144 60.3526 31.146 60.3668 31.146C60.5088 31.146 60.6346 31.044 60.6549 30.9C60.6833 30.708 60.6407 30.524 60.6285 30.334L60.0605 30.434C60.0626 30.564 60.0971 30.688 60.0768 30.818C60.0545 30.972 60.164 31.118 60.3242 31.142Z" fill="#000407"/>
<path d="M64.1641 31.7241C64.1783 31.7261 64.1905 31.7281 64.2047 31.7281C64.3487 31.7281 64.4744 31.6241 64.4927 31.4801C64.5191 31.2901 64.5921 30.9961 64.7706 30.6881C64.9207 30.4401 65.1154 30.2221 65.3548 30.0461C65.4846 29.9501 65.511 29.7721 65.4136 29.6441C65.3163 29.5161 65.1317 29.4861 65.0059 29.5861C64.7037 29.8081 64.4582 30.0821 64.2675 30.3981C64.0383 30.7881 63.9491 31.1581 63.9146 31.4001C63.8923 31.5581 64.0038 31.7041 64.1641 31.7241Z" fill="#000407"/>
<path d="M58.3445 36.5061C58.381 36.5221 58.4195 36.5301 58.4581 36.5301C58.5717 36.5301 58.6772 36.4641 58.7258 36.3541C58.8252 36.1301 58.9409 35.7661 58.9469 35.3141C58.951 34.9461 58.88 34.5741 58.74 34.2361C58.6792 34.0881 58.5149 34.0201 58.3607 34.0781C58.2106 34.1381 58.1416 34.3041 58.2005 34.4521C58.2755 34.6381 58.3668 34.9361 58.3607 35.3041C58.3567 35.6621 58.2633 35.9501 58.1883 36.1281C58.1274 36.2761 58.1964 36.4441 58.3445 36.5061Z" fill="#000407"/>
<path d="M63.0282 35.74C62.799 35.848 62.4582 36.048 62.1479 36.398C61.9126 36.664 61.732 36.972 61.6103 37.312C61.5576 37.462 61.6367 37.626 61.7888 37.678C61.8213 37.69 61.8537 37.694 61.8862 37.694C62.0059 37.694 62.1195 37.62 62.1621 37.502C62.2594 37.228 62.4014 36.984 62.586 36.774C62.8315 36.5 63.0992 36.342 63.2777 36.258C63.4238 36.188 63.4846 36.018 63.4156 35.874C63.3487 35.734 63.1702 35.672 63.0282 35.74Z" fill="#000407"/>
<path d="M55.8211 38.532C55.6669 38.58 55.5838 38.744 55.6325 38.894C55.7217 39.168 55.7562 39.466 55.7319 39.756C55.7075 40.034 55.6284 40.308 55.4966 40.566C55.4235 40.706 55.4824 40.88 55.6264 40.952C55.669 40.972 55.7136 40.984 55.7582 40.984C55.8637 40.984 55.9672 40.926 56.0179 40.826C56.1842 40.502 56.2836 40.16 56.314 39.806C56.3465 39.442 56.3019 39.066 56.1883 38.72C56.1396 38.566 55.9672 38.488 55.8211 38.532Z" fill="#000407"/>
<path d="M60.2431 41.4461C59.8861 41.5521 59.5616 41.7281 59.2776 41.9661C58.9287 42.2561 58.7198 42.5761 58.6062 42.7941C58.5331 42.9341 58.5899 43.1081 58.734 43.1821C58.7766 43.2021 58.8212 43.2141 58.8658 43.2141C58.9713 43.2141 59.0727 43.1561 59.1255 43.0561C59.2147 42.8861 59.379 42.6341 59.6529 42.4041C59.876 42.2161 60.1336 42.0801 60.4135 41.9961C60.5677 41.9501 60.6549 41.7881 60.6062 41.6361C60.5575 41.4841 60.3953 41.3961 60.2431 41.4461Z" fill="#000407"/>
<path d="M52.3808 42.418C52.2206 42.44 52.111 42.586 52.1334 42.744C52.178 43.036 52.1618 43.3301 52.0887 43.6141C52.0177 43.8881 51.896 44.1441 51.7216 44.3741C51.6262 44.5021 51.6526 44.6801 51.7845 44.7761C51.8352 44.8141 51.896 44.8321 51.9569 44.8321C52.0461 44.8321 52.1334 44.7901 52.1922 44.7141C52.4092 44.4261 52.5634 44.1021 52.6526 43.7561C52.7439 43.396 52.7642 43.028 52.7094 42.662C52.6851 42.504 52.5208 42.4 52.3808 42.418Z" fill="#000407"/>
<path d="M54.2065 47.8761C54.2592 47.9161 54.3221 47.9361 54.3829 47.9361C54.4702 47.9361 54.5574 47.8961 54.6142 47.8221C54.7886 47.5961 55.0016 47.4101 55.245 47.2701C55.5635 47.0861 55.8678 47.0221 56.0645 46.9981C56.2248 46.9801 56.3404 46.8361 56.3201 46.6781C56.2998 46.5221 56.17 46.4341 55.9956 46.4261C55.744 46.4561 55.3566 46.5401 54.9529 46.7721C54.6405 46.9521 54.3708 47.1881 54.1497 47.4741C54.0543 47.6001 54.0807 47.7801 54.2065 47.8761Z" fill="#000407"/>
<path d="M48.4801 45.79C48.3279 45.79 48.2022 45.906 48.19 46.058C48.1758 46.256 48.121 46.562 47.9506 46.888C47.8188 47.138 47.6403 47.36 47.4192 47.544C47.2975 47.646 47.2833 47.828 47.3867 47.95C47.4456 48.016 47.5267 48.052 47.6078 48.052C47.6748 48.052 47.7417 48.03 47.7985 47.982C48.0764 47.748 48.2995 47.47 48.4659 47.154C48.6849 46.738 48.7519 46.352 48.7701 46.1C48.7823 45.942 48.6626 45.804 48.5004 45.794C48.4922 45.79 48.4882 45.79 48.4801 45.79Z" fill="#000407"/>
<path d="M48.8553 51.712C48.9142 51.712 48.975 51.694 49.0257 51.656C49.184 51.544 49.4436 51.392 49.7884 51.314C50.0744 51.248 50.3645 51.242 50.6526 51.29C50.8209 51.332 50.9609 51.214 50.9893 51.058C51.0177 50.9 50.9122 50.752 50.754 50.726C50.3868 50.662 50.0176 50.674 49.6546 50.754C49.3077 50.834 48.971 50.986 48.6829 51.194C48.5511 51.288 48.5227 51.468 48.618 51.594C48.6768 51.67 48.7661 51.712 48.8553 51.712Z" fill="#000407"/>
<path d="M42.4414 50.5701C42.4961 50.5701 42.5509 50.5561 42.6016 50.5241C42.9079 50.33 43.1655 50.082 43.3724 49.79C43.4962 49.616 43.5915 49.422 43.6726 49.222C43.1939 49.602 42.699 49.976 42.1797 50.3381C42.1878 50.3721 42.1797 50.4081 42.1979 50.4381C42.2527 50.5241 42.346 50.5701 42.4414 50.5701Z" fill="#000407"/>
<path d="M52.3646 3.90208C52.0766 3.67808 51.7358 3.51008 51.3829 3.41408C51.2226 3.36608 51.0664 3.46408 51.0238 3.61408C50.9792 3.76808 51.0725 3.92608 51.2267 3.96808C51.5046 4.04208 51.7743 4.17808 52.0015 4.35408C52.2186 4.52608 52.4032 4.74408 52.5411 4.98208C52.6709 5.02408 52.8028 5.06808 52.9224 5.11008C52.9306 5.10608 52.9387 5.10808 52.9468 5.10408C53.0868 5.02808 53.1375 4.85208 53.0584 4.71408C52.8859 4.40208 52.6466 4.12408 52.3646 3.90208Z" fill="#000407"/>
<path d="M16.5745 4.01402C16.8626 3.79002 17.2033 3.62202 17.5563 3.52602C17.7165 3.47802 17.8727 3.57602 17.9153 3.72602C17.9599 3.88002 17.8666 4.03802 17.7125 4.08002C17.4346 4.15402 17.1648 4.29002 16.9376 4.46602C16.7206 4.63802 16.536 4.85602 16.398 5.09402C16.2682 5.13602 16.1364 5.18002 16.0167 5.22202C16.0086 5.21802 16.0005 5.22002 15.9923 5.21602C15.8524 5.14002 15.8017 4.96402 15.8808 4.82602C16.0532 4.51402 16.2926 4.23402 16.5745 4.01402Z" fill="#000407"/>
<path d="M58.3607 6.88405C58.2776 6.60605 58.2492 6.30605 58.2816 6.02005C58.2979 5.86205 58.1822 5.71805 58.024 5.70205C57.8394 5.70005 57.7177 5.80405 57.7015 5.95605C57.6609 6.31805 57.6974 6.69605 57.8049 7.04805C57.9084 7.38605 58.0768 7.70005 58.306 7.98605C58.3628 8.05805 58.448 8.09405 58.5332 8.09405C58.5981 8.09405 58.663 8.07405 58.7157 8.03005C58.8415 7.93005 58.8618 7.75005 58.7603 7.62605C58.5758 7.40005 58.4419 7.15205 58.3607 6.88405Z" fill="#000407"/>
<path d="M11.8989 13.3261C11.6494 13.3781 11.2721 13.4981 10.8928 13.7681C10.5196 14.0321 10.2883 14.3341 10.1585 14.5421C10.0753 14.6761 10.1159 14.8541 10.2559 14.9361C10.3025 14.9641 10.3553 14.9801 10.408 14.9801C10.5074 14.9801 10.6007 14.9321 10.6575 14.8421C10.7589 14.6801 10.9395 14.4421 11.2336 14.2361C11.5318 14.0221 11.8279 13.9301 12.0206 13.8881C12.1788 13.8541 12.2782 13.7021 12.2438 13.5481C12.2113 13.3921 12.047 13.2821 11.8989 13.3261Z" fill="#000407"/>
<path d="M6.85415 13.24C6.89675 13.262 6.9434 13.274 6.98803 13.274C7.09148 13.274 7.1929 13.218 7.24564 13.12C7.41401 12.802 7.51949 12.46 7.55397 12.1C7.60062 11.638 7.51948 11.252 7.44443 11.01C7.39778 10.86 7.24564 10.78 7.07728 10.822C6.92312 10.87 6.83792 11.032 6.88661 11.184C6.94746 11.374 7.01237 11.678 6.97383 12.046C6.94543 12.33 6.86429 12.602 6.72839 12.854C6.65739 12.994 6.71013 13.166 6.85415 13.24Z" fill="#000407"/>
<path d="M8.17669 19.8941C8.128 20.0461 8.21117 20.2081 8.3633 20.2561C8.39373 20.2661 8.42416 20.2701 8.45459 20.2701C8.57832 20.2701 8.69192 20.1941 8.73248 20.0721C8.79334 19.8881 8.91505 19.6141 9.14832 19.3421C9.39376 19.0661 9.65746 18.9041 9.83597 18.8181C9.97999 18.7481 10.0408 18.5761 9.96985 18.4341C9.90088 18.2901 9.72643 18.2301 9.58038 18.3021C9.35319 18.4101 9.01444 18.6141 8.70611 18.9681C8.40793 19.3141 8.25377 19.6621 8.17669 19.8941Z" fill="#000407"/>
<path d="M4.52142 18.146C4.54779 18.428 4.51939 18.71 4.43825 18.986C4.39362 19.14 4.48085 19.298 4.63298 19.344C4.66138 19.354 4.68978 19.358 4.71615 19.358C4.84191 19.358 4.95956 19.276 4.99405 19.152C5.0975 18.804 5.13401 18.448 5.09953 18.094C5.06301 17.73 4.95348 17.366 4.777 17.046C4.70195 16.906 4.52141 16.856 4.38145 16.93C4.23946 17.004 4.18672 17.178 4.2638 17.32C4.40579 17.57 4.49302 17.856 4.52142 18.146Z" fill="#000407"/>
<path d="M7.99615 25.904C8.1564 25.904 8.28622 25.776 8.28825 25.618C8.29028 25.33 8.34708 25.052 8.45256 24.792C8.59455 24.454 8.79537 24.214 8.93939 24.074C9.05298 23.964 9.05501 23.78 8.94142 23.668C8.82985 23.558 8.64526 23.552 8.52964 23.666C8.26797 23.92 8.05498 24.234 7.91299 24.576C7.77708 24.904 7.70608 25.254 7.70203 25.616C7.70405 25.77 7.83388 25.902 7.99615 25.904Z" fill="#000407"/>
<path d="M3.23741 23.3C3.11773 23.406 3.10759 23.588 3.21712 23.706C3.41388 23.922 3.56602 24.174 3.66541 24.448C3.76075 24.718 3.79929 24.998 3.78915 25.284C3.78103 25.442 3.90477 25.578 4.06704 25.584C4.0711 25.586 4.07719 25.586 4.08124 25.586C4.23744 25.586 4.36523 25.464 4.37131 25.312C4.38754 24.952 4.33683 24.6 4.21715 24.26C4.09139 23.91 3.90274 23.594 3.65121 23.32C3.54167 23.198 3.35303 23.192 3.23741 23.3Z" fill="#000407"/>
<path d="M3.93114 29.586C3.79929 29.488 3.61876 29.518 3.52342 29.644C3.42606 29.774 3.45243 29.952 3.58225 30.046C3.82161 30.222 4.01634 30.436 4.16644 30.688C4.30844 30.93 4.40377 31.196 4.44637 31.482C4.46666 31.624 4.59242 31.728 4.73441 31.728C4.74861 31.728 4.76281 31.726 4.77904 31.724C4.93726 31.702 5.04679 31.554 5.02448 31.396C4.97174 31.036 4.85003 30.7 4.6695 30.398C4.48085 30.08 4.23338 29.808 3.93114 29.586Z" fill="#000407"/>
<path d="M5.70804 36.2881L6.00825 35.7981C5.97782 35.7821 5.93725 35.754 5.91088 35.74C5.76686 35.672 5.59039 35.7341 5.52142 35.8761C5.45245 36.0201 5.51331 36.1901 5.65936 36.2601C5.67355 36.2661 5.69384 36.2801 5.70804 36.2881Z" fill="#000407"/>
<path d="M13.2904 38.738L12.7224 38.84C12.6352 39.152 12.5947 39.482 12.623 39.806C12.6535 40.162 12.7549 40.514 12.9192 40.828C12.9719 40.928 13.0734 40.986 13.1788 40.986C13.2235 40.986 13.2701 40.974 13.3107 40.954C13.4547 40.882 13.5095 40.708 13.4385 40.566C13.3472 40.394 13.2336 40.114 13.2032 39.758C13.1788 39.468 13.2133 39.17 13.3026 38.896C13.3208 38.84 13.3046 38.788 13.2904 38.738Z" fill="#000407"/>
<path d="M9.66151 41.966C9.37752 41.728 9.05297 41.552 8.69596 41.446C8.54788 41.396 8.37952 41.486 8.33084 41.636C8.28215 41.786 8.37141 41.948 8.52354 41.996C8.80347 42.08 9.06108 42.216 9.28421 42.404C9.49923 42.584 9.67773 42.804 9.81364 43.06C9.86638 43.158 9.9678 43.214 10.0713 43.214C10.1159 43.214 10.1646 43.202 10.2051 43.18C10.3492 43.106 10.4019 42.934 10.3289 42.792C10.1605 42.472 9.93535 42.194 9.66151 41.966Z" fill="#000407"/>
<path d="M16.8504 43.6141C16.7773 43.3301 16.7611 43.0361 16.8057 42.7441C16.828 42.5861 16.7185 42.4401 16.5583 42.4181C16.4021 42.3961 16.2499 42.5041 16.2276 42.6621C16.1729 43.0281 16.1931 43.3981 16.2844 43.7561C16.3737 44.1021 16.5299 44.4261 16.7449 44.7141C16.8037 44.7901 16.8909 44.8321 16.9802 44.8321C17.041 44.8321 17.1019 44.8141 17.1526 44.7761C17.2844 44.6801 17.3108 44.5021 17.2155 44.3741C17.0431 44.1441 16.9214 43.8901 16.8504 43.6141Z" fill="#000407"/>
<path d="M13.9841 46.7721C13.5805 46.5401 13.193 46.4561 12.9415 46.4261C12.7873 46.4321 12.6372 46.5201 12.6169 46.6781C12.5987 46.8361 12.7143 46.9801 12.8725 46.9981C13.0693 47.0201 13.3736 47.0861 13.69 47.2701C13.9334 47.4081 14.1444 47.5961 14.3229 47.8241C14.3817 47.8961 14.4669 47.9361 14.5541 47.9361C14.617 47.9361 14.6799 47.9161 14.7326 47.8761C14.8604 47.7781 14.8848 47.5981 14.7854 47.4721C14.5622 47.1841 14.2904 46.9501 13.9841 46.7721Z" fill="#000407"/>
<path d="M20.9884 46.8881C20.8545 46.6301 20.7713 46.3501 20.747 46.0561C20.7369 45.8981 20.6111 45.8141 20.4346 45.7921C20.2744 45.8061 20.1547 45.9441 20.1669 46.1001C20.1973 46.4701 20.2987 46.8241 20.4711 47.1521C20.6375 47.4681 20.8626 47.7481 21.1385 47.9821C21.1933 48.0281 21.2622 48.0521 21.3292 48.0521C21.4103 48.0521 21.4915 48.0161 21.5503 47.9501C21.6537 47.8281 21.6395 47.6461 21.5178 47.5441C21.2967 47.3581 21.1182 47.1381 20.9884 46.8881Z" fill="#000407"/>
<path d="M20.2541 51.1921C19.966 50.9841 19.6293 50.8321 19.2804 50.7521C18.9173 50.6701 18.5502 50.6621 18.183 50.7241C18.0248 50.7501 17.9193 50.9001 17.9477 51.0561C17.9761 51.2121 18.1323 51.3281 18.2845 51.2881C18.5725 51.2421 18.8646 51.2461 19.1465 51.3121C19.4204 51.3741 19.6861 51.4941 19.9113 51.6541C19.962 51.6921 20.0228 51.7101 20.0817 51.7101C20.1709 51.7101 20.2602 51.6681 20.317 51.5901C20.4123 51.4641 20.3839 51.2861 20.2541 51.1921Z" fill="#000407"/>
<path d="M25.5686 49.79C25.7755 50.08 26.0413 50.334 26.3415 50.524C26.3902 50.556 26.4449 50.57 26.4997 50.57C26.595 50.57 26.6904 50.524 26.7451 50.438C26.7715 50.396 26.7654 50.35 26.7695 50.304C26.2624 49.95 25.7796 49.582 25.313 49.208C25.3901 49.406 25.4429 49.616 25.5686 49.79Z" fill="#000407"/>
<path d="M10.408 8.09409C10.4932 8.09409 10.5784 8.05609 10.6352 7.98609C10.8624 7.70609 11.0307 7.39009 11.1342 7.04809C11.2396 6.70009 11.2762 6.33409 11.2376 5.96009C11.2234 5.80209 11.0997 5.69609 10.9192 5.70209C10.7589 5.71609 10.6413 5.86009 10.6575 6.01609C10.6879 6.31609 10.6595 6.60809 10.5763 6.88409C10.4952 7.15409 10.3593 7.40409 10.1808 7.62609C10.0794 7.75009 10.1017 7.93009 10.2254 8.03009C10.2782 8.07409 10.3431 8.09409 10.408 8.09409Z" fill="#000407"/>
<path d="M15.7428 36.884C15.7165 36.68 15.5521 36.532 15.3473 36.51C15.2175 36.496 15.0978 36.52 14.972 36.542C14.8787 36.558 14.7854 36.574 14.6921 36.592C14.5663 36.614 14.4385 36.636 14.3128 36.66C12.6596 36.952 11.0064 37.246 9.35319 37.538C8.62091 37.668 7.88661 37.798 7.15434 37.928C7.08943 37.94 7.02452 37.95 6.95961 37.962C6.93729 37.966 6.91498 37.97 6.89064 37.974L10.0997 32.742C10.197 32.584 10.1808 32.384 10.0611 32.244L6.59246 28.126C6.59246 28.126 10.7589 27.396 10.7609 27.38C10.7609 27.374 10.911 27.352 10.9252 27.35C11.0794 27.32 11.2599 27.326 11.3938 27.232C11.5094 27.15 11.5764 27.016 11.5764 26.876C11.5784 26.682 11.4283 26.502 11.2376 26.462C11.1423 26.442 11.0449 26.468 10.9516 26.486C10.7832 26.516 10.6149 26.544 10.4465 26.574C10.2031 26.618 9.96172 26.66 9.71831 26.702C9.4323 26.752 9.14425 26.802 8.85824 26.852C8.55803 26.904 8.25579 26.958 7.95558 27.01C7.66957 27.06 7.38356 27.11 7.09957 27.16C6.85818 27.202 6.61883 27.244 6.37947 27.286C6.21516 27.314 6.04883 27.344 5.88453 27.372C5.82367 27.382 5.76485 27.394 5.70399 27.404C5.54983 27.432 5.42407 27.536 5.3693 27.68C5.31453 27.824 5.34293 27.984 5.44232 28.102L9.19091 32.552L5.64111 38.338C5.55186 38.482 5.55794 38.666 5.65531 38.804C5.73848 38.924 5.87438 38.992 6.01638 38.992C6.04072 38.992 6.06709 38.99 6.09346 38.986L15.4061 37.338C15.6191 37.292 15.7712 37.104 15.7428 36.884Z" fill="#000407"/>
<path d="M55.9144 29.2641C55.8454 29.2761 55.7744 29.2861 55.7075 29.3021C55.6223 29.3241 55.5452 29.3561 55.4783 29.4201C55.3769 29.5181 55.3302 29.6641 55.3545 29.8021C55.3769 29.9221 55.4499 30.0281 55.5554 30.0901C55.7765 30.2221 56.1619 30.0941 56.4093 30.0501C56.7177 29.9961 57.026 29.9421 57.3343 29.8881C57.736 29.8181 58.1356 29.7481 58.5372 29.6761C58.9835 29.5981 59.4277 29.5201 59.874 29.4421C60.3162 29.3641 60.7584 29.2881 61.2006 29.2101C61.59 29.1421 61.9815 29.0721 62.371 29.0041C62.6611 28.9521 62.9511 28.9021 63.2432 28.8501C63.3852 28.8261 63.5292 28.8001 63.6915 28.7721C63.8457 28.7441 63.9714 28.6401 64.0262 28.4961C64.081 28.3521 64.0526 28.1921 63.9532 28.0741L60.2046 23.6261L63.7524 17.8401C63.8416 17.6961 63.8355 17.5121 63.7382 17.3721C63.6388 17.2341 63.4826 17.1701 63.3 17.1921L58.1741 18.1001C57.9368 18.1421 57.7806 18.3661 57.8232 18.5981C57.8658 18.8321 58.093 18.9881 58.3445 18.9441L62.5028 18.2081L59.2938 23.4401C59.1964 23.5981 59.2127 23.7981 59.3324 23.9381L62.801 28.0541C62.6935 28.0721 62.586 28.0921 62.4785 28.1101C62.1965 28.1601 61.9146 28.2101 61.6326 28.2581C61.2371 28.3281 60.8415 28.3961 60.446 28.4661C59.9977 28.5461 59.5474 28.6241 59.0991 28.7021C58.6569 28.7801 58.2167 28.8581 57.7745 28.9341C57.4013 29.0001 57.028 29.0641 56.6528 29.1301C56.4033 29.1781 56.1578 29.2201 55.9144 29.2641Z" fill="#000407"/>
<path d="M13.4324 12.2721C13.4243 12.9081 13.4243 13.5441 13.4283 14.1801C13.4344 14.8921 13.4466 15.6041 13.4689 16.3181C13.4912 17.0961 13.5237 17.8721 13.5642 18.6501C13.5825 18.9761 13.6007 19.3021 13.621 19.6281C13.6312 19.7941 13.6433 19.9601 13.6535 20.1261C13.6575 20.1781 13.6616 20.2301 13.6677 20.2801C13.6819 20.3681 13.7103 20.4521 13.7772 20.5241C13.8624 20.6161 13.978 20.6581 14.1018 20.6581C14.404 20.6461 14.5338 20.3601 14.5237 20.0941C14.5075 19.6901 14.4689 19.2841 14.4466 18.8801C14.402 18.0941 14.3675 17.3101 14.3432 16.5241C14.3208 15.8021 14.3046 15.0821 14.2985 14.3601C14.2924 13.7161 14.2924 13.0701 14.2985 12.4241C14.3046 11.8681 14.3148 11.3121 14.329 10.7541C14.3411 10.2981 14.3574 9.84209 14.3776 9.38609C14.3918 9.04209 14.4101 8.70009 14.4304 8.35609C14.4385 8.23609 14.4446 8.11609 14.4527 7.99609C14.4547 7.97009 14.4547 7.73009 14.471 7.72409C35.1409 0.124094 52.3362 6.79609 54.5147 7.71009C54.5634 8.37009 54.6811 10.2941 54.6953 12.9761C54.6953 13.1641 54.8352 13.3241 55.0158 13.3741C55.2044 13.4261 55.4072 13.3421 55.5046 13.1741C55.5432 13.1081 55.5634 13.0341 55.5675 12.9301C55.5513 9.59209 55.3707 7.43409 55.3667 7.38209C55.3525 7.22809 55.2571 7.09409 55.1151 7.02809C54.9326 6.94409 36.3945 -1.36791 13.903 7.01409C13.7468 7.07409 13.6373 7.21609 13.6231 7.38009C13.6149 7.46009 13.6109 7.54009 13.6048 7.62009C13.5886 7.83409 13.5744 8.05009 13.5622 8.26409C13.5419 8.60209 13.5257 8.94009 13.5095 9.27809C13.4892 9.72609 13.473 10.1761 13.4608 10.6241C13.4486 11.1761 13.4364 11.7241 13.4324 12.2721Z" fill="#000407"/>
<path d="M19.6719 40.2381C19.4589 39.9121 19.2561 39.5801 19.0614 39.2421C18.8666 38.9061 18.678 38.5621 18.4995 38.2161C18.321 37.8701 18.1526 37.52 17.9903 37.166C17.822 36.794 17.6556 36.42 17.5136 36.038C17.4224 35.792 17.3088 35.556 17.1972 35.318C17.1587 35.236 17.1161 35.15 17.0471 35.088C16.9396 34.994 16.7428 34.956 16.6049 35.008C16.5075 35.044 16.4284 35.116 16.3818 35.206C16.327 35.318 16.3311 35.432 16.3737 35.546C16.5075 35.904 16.6414 36.262 16.7875 36.616C16.9335 36.974 17.0897 37.328 17.254 37.678C17.4183 38.03 17.5907 38.3761 17.7713 38.7201C17.9518 39.0641 18.1404 39.4021 18.3392 39.7381C18.5299 40.0621 18.7287 40.3821 18.9336 40.6981C19.4062 41.4241 20.3149 42.7121 21.5827 44.1841C21.5624 43.7661 21.5746 43.3261 21.6233 42.8601C20.8971 41.9761 20.2257 41.0901 19.6719 40.2381Z" fill="#000407"/>
<path d="M53.2733 33.4561C53.4843 32.6521 53.675 31.8441 53.8494 31.0341C53.9346 30.6421 54.0137 30.2501 54.0908 29.8561C54.1293 29.6621 54.1658 29.4681 54.2024 29.2741C54.2389 29.0821 54.3159 28.8721 54.2328 28.6821C54.1658 28.5241 54.0056 28.4201 53.8311 28.4201C53.6587 28.4201 53.4985 28.5241 53.4295 28.6801C53.391 28.7681 53.3889 28.8701 53.3707 28.9641C53.2226 29.7701 53.0563 30.5721 52.8757 31.3721C52.7358 31.9961 52.5857 32.6201 52.4234 33.2381C52.0502 34.6681 51.5167 36.0421 50.8858 37.3721C51.0583 37.7141 51.0826 38.1141 50.9386 38.4841C50.7966 38.8521 50.5349 39.3761 50.1049 39.7581C49.8777 39.9601 49.6039 40.1021 49.326 40.2321C49.3239 40.2341 49.3239 40.2361 49.3219 40.2381C48.4659 41.5541 47.3665 42.9441 46.1169 44.3061C46.3969 44.5001 46.5632 44.7541 46.5733 45.0521C46.5733 45.0821 46.5612 45.1161 46.5591 45.1481C48.2935 43.2761 49.4821 41.5841 50.0562 40.7001C51.5228 38.4621 52.6019 36.0241 53.2733 33.4561Z" fill="#000407"/>
<path d="M45.3583 46.1101C44.9769 46.1541 44.5935 46.1921 44.2122 46.2301C41.4819 48.7601 38.1714 50.9661 34.4918 51.9961C32.8183 51.5261 31.2301 50.7881 29.7229 49.9081C29.4714 49.9941 29.1874 50.0721 28.8669 50.0781C28.8588 50.0781 28.8527 50.0781 28.8426 50.0781C28.3618 50.0781 27.8304 49.7561 27.5971 49.3201C27.4855 49.1021 27.449 48.8501 27.4794 48.6021C27.1671 48.7321 26.8527 48.8121 26.5423 48.8721C28.7351 50.5321 31.3274 52.0121 34.3153 52.8401C34.3539 52.8521 34.3924 52.8541 34.433 52.8541H34.5689C34.6095 52.8541 34.648 52.8501 34.6866 52.8401C39.3216 51.5541 43.0438 48.7141 45.7112 46.0361C45.6037 46.0661 45.5023 46.0941 45.3583 46.1101Z" fill="#000407"/>
<path d="M16.9842 19.06C17.0126 19.22 17.1567 19.334 17.3189 19.334C17.3372 19.334 17.3595 19.332 17.3798 19.328L51.7398 13.214C51.9244 13.182 52.0482 13.008 52.0137 12.824C51.9812 12.644 51.823 12.52 51.6181 12.554L17.2581 18.67C17.0735 18.702 16.9518 18.876 16.9842 19.06Z" fill="#000407"/>
<path d="M56.2775 14.238L12.9557 21.912C12.7468 21.95 12.5967 22.128 12.5967 22.336V34.184C12.5967 34.312 12.6535 34.432 12.7529 34.516C12.832 34.582 12.9314 34.616 13.0328 34.616C13.0592 34.616 13.0835 34.614 13.1099 34.61L56.4316 26.938C56.6406 26.9 56.7907 26.722 56.7907 26.514V14.662C56.7907 14.534 56.7339 14.414 56.6345 14.33C56.5371 14.248 56.4093 14.22 56.2775 14.238ZM55.9184 26.15L13.4689 33.67V22.698L55.9184 15.176V26.15Z" fill="#000407"/>
<path d="M17.254 25.188H17.2824C17.3372 25.188 17.3798 25.192 17.4082 25.202C17.4285 25.206 17.4427 25.22 17.4609 25.232C17.4812 25.26 17.4873 25.266 17.5076 25.294C17.5157 25.312 17.5258 25.328 17.5258 25.356L17.5197 27.726C17.5177 28.482 17.7084 29.056 18.0877 29.43C18.3818 29.72 18.7672 29.864 19.2358 29.864C19.3758 29.864 19.5239 29.852 19.678 29.826C20.25 29.73 20.7146 29.436 21.0594 28.95C21.4042 28.468 21.5807 27.864 21.5827 27.156L21.5909 24.7C21.5909 24.65 21.603 24.606 21.6294 24.574C21.6558 24.538 21.6862 24.508 21.7247 24.488C21.7653 24.464 21.818 24.442 21.889 24.42C21.9134 24.412 21.9296 24.39 21.9296 24.366L21.9316 23.894C21.9316 23.878 21.9235 23.862 21.9113 23.85C21.9012 23.842 21.887 23.836 21.8748 23.836C21.8708 23.836 21.8688 23.836 21.8647 23.836L20.6395 24.04C20.6111 24.044 20.5908 24.068 20.5908 24.096L20.5888 24.568C20.5888 24.584 20.5949 24.598 20.6071 24.61C20.6172 24.62 20.6314 24.626 20.6476 24.626C20.6476 24.626 20.6476 24.626 20.6497 24.626H20.6841C20.7754 24.626 20.8119 24.64 20.8444 24.652C20.8728 24.672 20.9032 24.708 20.9357 24.75C20.9377 24.764 20.9438 24.77 20.9438 24.79L20.9377 27.072C20.9357 27.816 20.749 28.322 20.4164 28.65C20.3434 28.72 20.2825 28.8 20.1933 28.852C20.0797 28.92 19.9417 28.958 19.7997 28.994C19.747 29.01 19.7024 29.032 19.6476 29.044C19.603 29.05 19.5604 29.056 19.5218 29.056C19.2804 29.056 19.0857 28.944 18.9275 28.716C18.7348 28.436 18.6395 27.988 18.6415 27.386L18.6476 25.194C18.6476 25.142 18.6618 25.102 18.6881 25.068C18.7206 25.028 18.753 25 18.7896 24.98C18.8322 24.954 18.8849 24.932 18.9539 24.91C18.9782 24.902 18.9944 24.88 18.9944 24.854L18.9965 24.392C18.9965 24.39 18.9965 24.386 18.9965 24.382C18.9965 24.352 18.9701 24.324 18.9376 24.324C18.9336 24.324 18.9295 24.324 18.9255 24.324L17.252 24.602C17.2236 24.606 17.2033 24.63 17.2033 24.658V25.132C17.2033 25.146 17.2094 25.162 17.2195 25.172C17.2236 25.182 17.2378 25.188 17.254 25.188Z" fill="#000407"/>
<path d="M23.8485 29.0421C23.8526 29.0421 23.8546 29.0421 23.8586 29.0421L25.378 28.7901C25.4064 28.7861 25.4266 28.7621 25.4266 28.7341V28.2621C25.4266 28.2301 25.4003 28.2041 25.3698 28.2041C24.9459 28.1981 24.9459 28.0161 24.9459 27.9581L24.954 24.9721L27.7594 28.3641C27.7898 28.4061 27.8466 28.4261 27.9298 28.4261C27.9663 28.4261 28.0089 28.4221 28.0575 28.4141C28.1265 28.4021 28.305 28.3721 28.305 28.2561L28.3192 23.6841C28.3192 23.5141 28.4693 23.3761 28.7634 23.2741C28.7858 23.2661 28.802 23.2441 28.802 23.2201V22.7481C28.802 22.7321 28.7939 22.7161 28.7817 22.7041C28.7716 22.6961 28.7574 22.6901 28.7432 22.6901C28.7411 22.6901 28.7371 22.6901 28.733 22.6901L27.1468 22.9541C27.1184 22.9581 27.0981 22.9821 27.0981 23.0101L27.0961 23.4821C27.0961 23.5121 27.1224 23.5381 27.1549 23.5401C27.5788 23.5441 27.5788 23.7261 27.5788 23.7861L27.5707 26.2841L25.2765 23.2961C25.2664 23.2821 25.2481 23.2741 25.2319 23.2741C25.2278 23.2741 25.2258 23.2741 25.2218 23.2741L23.8526 23.5021C23.8242 23.5061 23.8039 23.5301 23.8039 23.5581L23.8018 24.0301C23.8018 24.0621 23.8282 24.0881 23.8607 24.0881C24.2846 24.0941 24.2846 24.2761 24.2846 24.3341L24.2745 28.0481C24.2745 28.2201 24.1244 28.3561 23.8302 28.4581C23.8059 28.4661 23.7917 28.4881 23.7917 28.5121L23.7897 28.9841C23.7897 29.0001 23.7978 29.0161 23.81 29.0281C23.8221 29.0381 23.8363 29.0421 23.8485 29.0421Z" fill="#000407"/>
<path d="M30.727 27.8981C30.7291 27.8981 30.7331 27.8981 30.7372 27.8981L32.7149 27.5681C32.7433 27.5641 32.7636 27.5401 32.7636 27.5121V27.0401C32.7636 27.0101 32.7372 26.9841 32.7068 26.9821C32.2829 26.9781 32.2829 26.7961 32.2829 26.7361L32.293 23.0201C32.293 22.8501 32.4431 22.7121 32.7372 22.6101C32.7596 22.6021 32.7758 22.5821 32.7758 22.5561V22.0841C32.7758 22.0681 32.7677 22.0521 32.7555 22.0401C32.7454 22.0321 32.7312 22.0261 32.717 22.0261C32.7149 22.0261 32.7109 22.0261 32.7068 22.0261L30.7291 22.3561C30.7007 22.3601 30.6804 22.3841 30.6804 22.4121V22.8841C30.6804 22.9141 30.7068 22.9401 30.7372 22.9421C31.1611 22.9461 31.1611 23.1281 31.1611 23.1881L31.151 26.9041C31.151 27.0741 31.0009 27.2121 30.7068 27.3141C30.6844 27.3221 30.6682 27.3421 30.6682 27.3681V27.8401C30.6682 27.8561 30.6763 27.8721 30.6885 27.8841C30.6986 27.8941 30.7128 27.8981 30.727 27.8981Z" fill="#000407"/>
<path d="M34.6379 22.3121C34.6379 22.3121 34.6399 22.3121 34.6419 22.3121C34.6622 22.3121 34.6825 22.3101 34.7007 22.3101C34.8184 22.3101 34.9076 22.3361 34.9644 22.3841C35.0131 22.4281 35.1004 22.5481 35.2302 22.8601L36.8367 26.6741C36.9077 26.8461 37.0152 26.8821 37.0943 26.8821C37.1085 26.8821 37.1248 26.8821 37.139 26.8781L37.4169 26.8321C37.4371 26.8281 37.4554 26.8141 37.4615 26.7961L39.2262 21.9941C39.3114 21.7621 39.3723 21.6641 39.4108 21.6221C39.4636 21.5621 39.5609 21.5101 39.6989 21.4721C39.7232 21.4661 39.7415 21.4441 39.7415 21.4161L39.7435 20.9261C39.7435 20.9101 39.7354 20.8941 39.7232 20.8821C39.7131 20.8741 39.6989 20.8681 39.6867 20.8681C39.6826 20.8681 39.6806 20.8681 39.6766 20.8681L38.2181 21.1121C38.1897 21.1161 38.1694 21.1401 38.1694 21.1681L38.1674 21.6581C38.1674 21.6721 38.1735 21.6881 38.1856 21.7001C38.1978 21.7101 38.212 21.7161 38.2262 21.7161C38.2282 21.7161 38.2282 21.7161 38.2303 21.7161C38.2587 21.7141 38.2891 21.7141 38.3155 21.7141C38.3905 21.7141 38.4392 21.7301 38.4899 21.7441C38.5244 21.7701 38.5589 21.8161 38.5954 21.8801C38.5934 21.8901 38.5974 21.8921 38.5934 21.9021L37.431 25.1101L37.07 24.2541L36.2464 22.1381C36.2505 22.1341 36.2444 22.1281 36.2505 22.1241C36.2829 22.0981 36.3722 22.0481 36.5791 21.9941C36.6055 21.9881 36.6217 21.9641 36.6217 21.9381L36.6237 21.4581C36.6237 21.4561 36.6237 21.4521 36.6237 21.4481C36.6237 21.4181 36.5974 21.3901 36.5649 21.3901C36.5608 21.3901 36.5568 21.3901 36.5527 21.3901L34.6277 21.7101C34.5993 21.7141 34.579 21.7381 34.579 21.7661V22.2561C34.579 22.2721 34.5851 22.2861 34.5973 22.2981C34.6074 22.3061 34.6216 22.3121 34.6379 22.3121Z" fill="#000407"/>
<path d="M41.5894 26.0901C41.5915 26.0901 41.5955 26.0901 41.5996 26.0901L45.2792 25.4781C45.3786 25.4621 45.5084 25.3981 45.551 25.1941C45.6524 24.7021 45.7336 24.3841 45.7904 24.2461C45.7985 24.2281 45.7944 24.2041 45.7823 24.1881C45.7701 24.1741 45.7539 24.1661 45.7376 24.1661C45.7336 24.1661 45.7315 24.1661 45.7275 24.1661L45.2609 24.2441C45.2447 24.2461 45.2305 24.2561 45.2204 24.2701L45.0236 24.5901C44.9668 24.6861 44.91 24.7481 44.8532 24.7781C44.7944 24.8081 44.693 24.8361 44.5591 24.8581L43.1432 25.1081L43.1473 23.3461L44.3096 23.1521C44.3421 23.1461 44.3704 23.1441 44.3968 23.1441C44.4293 23.1441 44.4739 23.1481 44.4962 23.1721C44.5226 23.1981 44.5672 23.2641 44.6301 23.4381C44.6382 23.4621 44.6605 23.4761 44.6849 23.4761C44.6889 23.4761 44.6909 23.4761 44.695 23.4761L44.9283 23.4361C44.9567 23.4321 44.977 23.4081 44.977 23.3801L44.981 22.0521C44.981 22.0501 44.981 22.0461 44.981 22.0421C44.981 22.0121 44.9546 21.9841 44.9242 21.9841H44.9222C44.9181 21.9841 44.9141 21.9841 44.912 21.9841L44.6788 22.0241C44.6585 22.0261 44.6402 22.0421 44.6341 22.0621C44.5692 22.2601 44.5226 22.3401 44.4962 22.3741C44.4638 22.4161 44.3948 22.4461 44.2954 22.4621L43.1513 22.6521L43.1574 21.0041L44.1777 20.8341C44.2995 20.8141 44.4029 20.8041 44.48 20.8041C44.5124 20.8041 44.5408 20.8061 44.5652 20.8101C44.5834 20.8121 44.6078 20.8221 44.6321 20.8381C44.6362 20.8401 44.6382 20.8441 44.6423 20.8481C44.6666 20.8701 44.693 20.9001 44.7153 20.9521L44.8269 21.2221C44.837 21.2441 44.8573 21.2581 44.8816 21.2581C44.8836 21.2581 44.8877 21.2581 44.8918 21.2581L45.2995 21.1901C45.3279 21.1861 45.3482 21.1621 45.3482 21.1341L45.3502 20.1441C45.3502 20.0601 45.336 20.0101 45.3035 19.9821C45.2853 19.9621 45.2508 19.9481 45.2062 19.9481C45.192 19.9481 45.1737 19.9501 45.1555 19.9521L41.5955 20.5441C41.5671 20.5481 41.5468 20.5721 41.5468 20.6001V21.0721C41.5468 21.1021 41.5732 21.1281 41.6036 21.1301C42.0276 21.1341 42.0276 21.3161 42.0276 21.3761L42.0174 25.0921C42.0174 25.2621 41.8673 25.4001 41.5732 25.5021C41.5489 25.5101 41.5347 25.5301 41.5347 25.5561V26.0281C41.5347 26.0441 41.5428 26.0601 41.555 26.0721C41.561 26.0861 41.5752 26.0901 41.5894 26.0901Z" fill="#000407"/>
<path d="M47.7641 25.0621C47.7661 25.0621 47.7701 25.0621 47.7742 25.0621L49.752 24.7321C49.7804 24.7281 49.8006 24.7041 49.8006 24.6761V24.2021C49.8006 24.1721 49.7743 24.1461 49.7438 24.1441C49.3199 24.1401 49.3199 23.9581 49.3199 23.8981L49.3239 22.5121L49.7134 22.4481C49.758 22.4401 49.8006 22.4361 49.8432 22.4361C49.9751 22.4361 50.0948 22.4741 50.1942 22.5501C50.328 22.6521 50.4518 22.8501 50.5593 23.1421C50.7013 23.5441 50.8615 23.8461 51.0339 24.0401C51.2064 24.2341 51.4214 24.3581 51.6749 24.4061C51.679 24.4061 51.683 24.4061 51.6871 24.4061C51.6891 24.4061 51.6932 24.4061 51.6972 24.4061L52.6669 24.2441C52.6953 24.2401 52.7155 24.2161 52.7155 24.1881V23.7081C52.7155 23.6921 52.7074 23.6761 52.6953 23.6641C52.6851 23.6541 52.6709 23.6501 52.6567 23.6501C52.6547 23.6501 52.6506 23.6501 52.6466 23.6501L52.4742 23.6781C52.4742 23.6781 52.4741 23.6781 52.4721 23.6781C52.4701 23.6781 52.462 23.6781 52.4559 23.6781C52.3687 23.6781 52.2916 23.6421 52.2206 23.5681C52.1395 23.4821 52.0786 23.3901 52.0421 23.2941C52.0015 23.1901 51.9488 23.0361 51.8859 22.8381C51.8575 22.7481 51.7946 22.7001 51.7561 22.6221C51.7175 22.5461 51.677 22.4761 51.6303 22.4121C51.4498 22.1741 51.2266 21.9941 50.9122 21.9401C51.255 21.8121 51.5269 21.6241 51.7196 21.3781C51.967 21.0681 52.0908 20.7201 52.0928 20.3481C52.0928 19.8941 51.9184 19.5461 51.5735 19.3141C51.3281 19.1501 51.0279 19.0681 50.6769 19.0681C50.537 19.0681 50.3869 19.0821 50.2307 19.1081L47.7701 19.5181C47.7417 19.5221 47.7215 19.5461 47.7215 19.5741V20.0461C47.7215 20.0761 47.7458 20.1021 47.7783 20.1041C48.2022 20.1101 48.2022 20.2901 48.2022 20.3501L48.1921 24.0661C48.1921 24.2361 48.042 24.3741 47.7478 24.4761C47.7255 24.4841 47.7093 24.5061 47.7093 24.5301V25.0021C47.7093 25.0181 47.7174 25.0341 47.7296 25.0461C47.7357 25.0581 47.7499 25.0621 47.7641 25.0621ZM49.3321 19.8501L50.2469 19.6981C50.2956 19.6901 50.3443 19.6861 50.3869 19.6861C50.5491 19.6861 50.6708 19.7441 50.7581 19.8601C50.8717 20.0161 50.9305 20.2401 50.9285 20.5281C50.9285 20.8181 50.8636 21.0721 50.7398 21.2801C50.6161 21.4841 50.4295 21.6041 50.1678 21.6461L49.326 21.7861L49.3321 19.8501Z" fill="#000407"/>
<path d="M20.9417 14.0021C20.9458 14.0021 20.9499 14.0101 20.9559 14.0201L20.9965 14.1181C21.0107 14.1521 21.0411 14.1741 21.0797 14.1641L21.2115 14.1441C21.2501 14.1381 21.2785 14.1061 21.2785 14.0701L21.2744 13.7141C21.2744 13.6821 21.2704 13.6501 21.244 13.6141C21.2217 13.5921 21.1933 13.5721 21.1405 13.5881L19.9803 13.7801C19.9417 13.7861 19.9153 13.8181 19.9153 13.8541L19.9174 14.0241C19.9174 14.0661 19.9519 14.0981 19.9924 14.1001C20.0715 14.1021 20.0715 14.1241 20.0715 14.1361L20.0857 15.4721C20.0857 15.5101 20.0513 15.5401 19.9823 15.5661C19.9519 15.5781 19.9316 15.6061 19.9316 15.6381L19.9336 15.8081C19.9336 15.8301 19.9458 15.8521 19.962 15.8661C19.9762 15.8801 19.9924 15.8841 20.0107 15.8841C20.0147 15.8841 20.0208 15.8841 20.0249 15.8821L21.2278 15.6841C21.2744 15.6741 21.3373 15.6421 21.3596 15.5361C21.3981 15.3161 21.4245 15.2321 21.4326 15.2061C21.4407 15.1801 21.4367 15.1521 21.4184 15.1321C21.4022 15.1101 21.3677 15.0921 21.3454 15.1061L21.1912 15.1321C21.1689 15.1361 21.1466 15.1481 21.1365 15.1701L21.0716 15.2861C21.0574 15.3161 21.0452 15.3281 21.0452 15.3281C21.0452 15.3281 21.0452 15.3281 21.0452 15.3261C21.0351 15.3321 21.0087 15.3421 20.9641 15.3501L20.5705 15.4201L20.5644 14.9001L20.8951 14.8441C20.8951 14.8441 20.9032 14.8441 20.9093 14.8441C20.9133 14.8521 20.9235 14.8701 20.9357 14.9121C20.9478 14.9481 20.9803 14.9561 21.0209 14.9621L21.0959 14.9501C21.1344 14.9421 21.1628 14.9101 21.1628 14.8741L21.1588 14.3941C21.1588 14.3721 21.1466 14.3501 21.1304 14.3361C21.1162 14.3221 21.0979 14.3161 21.0675 14.3201L20.9925 14.3341C20.9641 14.3381 20.9417 14.3581 20.9316 14.3841C20.9113 14.4521 20.8991 14.4741 20.8951 14.4801C20.8951 14.4801 20.889 14.4841 20.8667 14.4901L20.5604 14.5401L20.5543 14.0621L20.8403 14.0141C20.9052 13.9981 20.9357 14.0001 20.9417 14.0021Z" fill="#000407"/>
<path d="M23.1588 15.0301C23.0189 15.0501 22.9134 15.0061 22.8505 14.8641C22.8424 14.8501 22.8261 14.8101 22.7977 14.7561C22.7795 14.7041 22.745 14.6821 22.7207 14.6721C22.6923 14.6601 22.6558 14.6601 22.601 14.6901L22.4691 14.7761C22.4428 14.7941 22.4286 14.8281 22.4387 14.8601L22.5706 15.3321C22.5766 15.3541 22.5929 15.3741 22.6152 15.3821C22.6355 15.3901 22.6618 15.3881 22.6842 15.3781C22.7065 15.3641 22.7572 15.3521 22.8687 15.3821C22.9499 15.4021 23.027 15.4141 23.0939 15.4141C23.1304 15.4141 23.1649 15.4101 23.1974 15.4041C23.3089 15.3861 23.4144 15.3461 23.5097 15.2841C23.6172 15.2121 23.7024 15.1201 23.7633 15.0101C23.8383 14.8861 23.8667 14.7521 23.8525 14.6001C23.8343 14.4021 23.739 14.2481 23.5746 14.1481C23.4976 14.1021 23.3738 14.0581 23.2055 14.0221C23.0655 13.9921 23.0006 13.9641 22.9702 13.9481C22.9418 13.9321 22.9255 13.8961 22.9195 13.8421C22.9113 13.7741 22.9255 13.7161 22.9621 13.6681C23.0006 13.6141 23.0452 13.5861 23.1142 13.5741C23.1832 13.5661 23.2359 13.5741 23.2907 13.6081C23.3434 13.6401 23.3738 13.6821 23.386 13.7381L23.4144 13.8621C23.4266 13.9061 23.4529 13.9281 23.4712 13.9381C23.4996 13.9521 23.532 13.9541 23.5746 13.9401L23.7146 13.8901C23.7471 13.8781 23.7674 13.8461 23.7653 13.8141L23.7308 13.4201C23.7268 13.3801 23.6943 13.3501 23.6578 13.3481C23.6335 13.3461 23.601 13.3341 23.5625 13.3121C23.5037 13.2741 23.4367 13.2441 23.3617 13.2241C23.2825 13.2001 23.1974 13.1961 23.0838 13.2141C22.887 13.2461 22.7268 13.3401 22.6132 13.4921C22.5016 13.6441 22.4549 13.8201 22.4773 14.0181C22.5077 14.3281 22.7085 14.5301 23.0635 14.6081C23.0655 14.6081 23.0817 14.6121 23.0838 14.6121C23.1203 14.6201 23.1507 14.6261 23.1872 14.6361C23.2034 14.6401 23.2217 14.6461 23.242 14.6521L23.2684 14.6601C23.3049 14.6741 23.3251 14.6881 23.3272 14.6901C23.3414 14.7041 23.3535 14.7241 23.3657 14.7421C23.3759 14.7581 23.3819 14.7801 23.384 14.8061C23.3901 14.8681 23.3738 14.9161 23.3393 14.9521C23.3008 14.9901 23.242 15.0161 23.1588 15.0301Z" fill="#000407"/>
<path d="M26.0332 13.1701L26.0799 13.2681C26.0941 13.2981 26.1265 13.3161 26.163 13.3101L26.2726 13.2921C26.3132 13.2861 26.3416 13.2501 26.3375 13.2121L26.3111 12.8981C26.3091 12.8761 26.303 12.8161 26.2604 12.7821C26.2462 12.7681 26.2198 12.7581 26.1874 12.7581C26.1813 12.7581 26.1732 12.7581 26.1651 12.7601L24.9541 12.9601C24.9257 12.9641 24.8344 12.9881 24.8283 13.1181L24.8101 13.4401C24.808 13.4621 24.8182 13.4841 24.8344 13.5001C24.8527 13.5161 24.8811 13.5321 24.8993 13.5181L25.0109 13.5021C25.0393 13.4981 25.0616 13.4801 25.0717 13.4541L25.1143 13.3441C25.1285 13.3121 25.1468 13.2741 25.1732 13.2701L25.3334 13.2441L25.3476 14.6081C25.3476 14.6521 25.2908 14.6821 25.2442 14.7021C25.2137 14.7141 25.1934 14.7421 25.1934 14.7741L25.1955 14.9441C25.1955 14.9661 25.2076 14.9881 25.2239 15.0021C25.2381 15.0161 25.2543 15.0201 25.2726 15.0201C25.2766 15.0201 25.2827 15.0201 25.2868 15.0181L25.9338 14.9121C25.9724 14.9061 25.9987 14.8741 25.9987 14.8381L25.9967 14.6681C25.9967 14.6261 25.9622 14.5941 25.9217 14.5921C25.8385 14.5881 25.8385 14.5661 25.8385 14.5561L25.8243 13.1681L26.0048 13.1361C26.0048 13.1241 26.0109 13.1221 26.0332 13.1701Z" fill="#000407"/>
<path d="M27.6377 14.6521C27.7066 14.6401 27.7655 14.6001 27.806 14.5341C27.8486 14.4701 27.8669 14.4041 27.8648 14.3341C27.8648 14.2581 27.8425 14.1921 27.7939 14.1381C27.7492 14.0941 27.6965 14.0681 27.6397 14.0681C27.6275 14.0681 27.6174 14.0701 27.6032 14.0721C27.5362 14.0821 27.4774 14.1221 27.4348 14.1881C27.3922 14.2481 27.374 14.3141 27.374 14.3901C27.376 14.4681 27.3983 14.5321 27.445 14.5841C27.4997 14.6401 27.5545 14.6561 27.5991 14.6561C27.6133 14.6561 27.6255 14.6561 27.6377 14.6521Z" fill="#000407"/>
<path d="M41.9667 10.8641C41.9627 10.8701 41.9566 10.8821 41.9221 10.9261C41.9059 10.9441 41.8917 10.9621 41.8754 10.9781C41.8633 10.9921 41.843 11.0161 41.8065 11.0481L41.6706 11.1821C41.6401 11.2141 41.6117 11.2441 41.5874 11.2741C41.5468 11.3181 41.5002 11.3761 41.4474 11.4541C41.3906 11.5321 41.344 11.6101 41.3075 11.6821C41.2669 11.7641 41.2344 11.8521 41.202 11.9561C41.1695 12.0641 41.1452 12.1741 41.131 12.2881C41.129 12.3121 41.1371 12.3361 41.1553 12.3541C41.1695 12.3681 41.1898 12.3741 41.2081 12.3741C41.2121 12.3741 41.2182 12.3741 41.2223 12.3721L42.3562 12.1841C42.4292 12.1701 42.4779 12.1161 42.4901 12.0321L42.5428 11.6341C42.5448 11.6101 42.5367 11.5861 42.5185 11.5681C42.5043 11.5541 42.4799 11.5421 42.4515 11.5501L42.3318 11.5701C42.3075 11.5741 42.2872 11.5881 42.275 11.6121L42.2345 11.6901C42.2203 11.7221 42.2081 11.7341 42.1939 11.7421C42.1797 11.7521 42.1472 11.7581 42.1006 11.7681L41.6422 11.8381C41.6503 11.8261 41.6584 11.8161 41.6706 11.8021L41.705 11.7641C41.7172 11.7501 41.7273 11.7401 41.7375 11.7301C41.7476 11.7201 41.7639 11.7061 41.7862 11.6861L41.9525 11.5321C41.9586 11.5261 41.9667 11.5181 41.9789 11.5061C41.9951 11.4921 42.0215 11.4661 42.056 11.4341C42.1087 11.3861 42.1513 11.3461 42.1756 11.3221C42.2 11.2981 42.2345 11.2561 42.2771 11.2041C42.3278 11.1441 42.3623 11.0941 42.3846 11.0421C42.4028 10.9981 42.4231 10.9401 42.4414 10.8761C42.4596 10.8061 42.4677 10.7341 42.4657 10.6601C42.4637 10.4561 42.3988 10.3021 42.275 10.2081C42.1513 10.1121 41.989 10.0801 41.7882 10.1141C41.5772 10.1501 41.415 10.2441 41.3034 10.3981C41.1939 10.5461 41.1411 10.7421 41.1432 10.9821C41.1432 11.0441 41.1655 11.1021 41.2141 11.1541C41.2628 11.1981 41.3359 11.2281 41.4008 11.2061C41.5184 11.1881 41.5996 11.1061 41.634 10.9741C41.634 10.9641 41.6381 10.9361 41.6198 10.8321C41.6077 10.7821 41.6077 10.7261 41.6219 10.6561C41.6361 10.5521 41.6989 10.4961 41.8227 10.4741C41.8754 10.4641 41.9099 10.4761 41.9424 10.5081C41.9789 10.5461 41.9971 10.6161 41.9971 10.7181C41.9992 10.7441 41.9951 10.7701 41.989 10.7941C41.9809 10.8221 41.9728 10.8461 41.9667 10.8641Z" fill="#000407"/>
<path d="M44.2224 11.902C44.2568 11.902 44.2913 11.898 44.3258 11.892C44.5489 11.854 44.7295 11.714 44.8613 11.474C44.9871 11.24 45.05 10.974 45.0459 10.684C45.0419 10.39 44.9729 10.144 44.8431 9.95203C44.7031 9.75003 44.5063 9.65603 44.2771 9.70603C44.056 9.74203 43.8755 9.88203 43.7396 10.12C43.6138 10.348 43.553 10.614 43.557 10.91C43.5611 11.212 43.628 11.452 43.7578 11.644C43.8816 11.814 44.0357 11.902 44.2224 11.902ZM44.1128 10.288C44.1554 10.166 44.2183 10.098 44.3075 10.082C44.3197 10.08 44.3278 10.08 44.34 10.08C44.3867 10.08 44.4394 10.104 44.48 10.21C44.5307 10.332 44.5571 10.506 44.5591 10.742C44.5631 11.074 44.5185 11.48 44.2954 11.518C44.2548 11.524 44.2163 11.516 44.1858 11.492C44.1209 11.44 44.0438 11.284 44.0398 10.854C44.0378 10.618 44.0641 10.428 44.1128 10.288Z" fill="#000407"/>
<path d="M46.0764 11.2881L46.0804 11.4761C46.0804 11.4981 46.0926 11.5201 46.1088 11.5341C46.123 11.5461 46.1413 11.5501 46.1575 11.5501C46.1616 11.5501 46.1676 11.5501 46.1717 11.5481L46.835 11.4381C46.8735 11.4321 46.8999 11.3981 46.8999 11.3621L46.8958 11.1741C46.8958 11.1481 46.8877 11.1201 46.8654 11.1061C46.8451 11.0921 46.8228 11.0881 46.7964 11.0981C46.7924 11.0981 46.7538 11.0941 46.7518 11.0941L46.7457 11.1701L46.7255 11.0901C46.7255 11.0901 46.7173 11.0881 46.7113 11.0861L46.695 9.48009C46.695 9.42009 46.6626 9.37609 46.6179 9.36009C46.5855 9.34409 46.5287 9.33808 46.4638 9.38408L46.0804 9.66809C46.0622 9.68209 46.05 9.70609 46.05 9.73009L46.052 9.95608C46.052 9.98408 46.0662 10.0081 46.0906 10.0221C46.1129 10.0361 46.1433 10.0361 46.1656 10.0241L46.2488 9.98009L46.263 11.1461C46.2589 11.1501 46.2386 11.1701 46.125 11.2141C46.0946 11.2261 46.0764 11.2561 46.0764 11.2881Z" fill="#000407"/>
<path d="M47.9202 10.982L47.9243 11.17C47.9243 11.192 47.9365 11.214 47.9527 11.228C47.9669 11.24 47.9851 11.244 48.0014 11.244C48.0054 11.244 48.0115 11.244 48.0156 11.242L48.6789 11.132C48.7174 11.126 48.7438 11.092 48.7438 11.056L48.7397 10.868C48.7397 10.826 48.7032 10.794 48.6627 10.794L48.6241 10.792C48.6099 10.792 48.6018 10.79 48.5795 10.79C48.5693 10.786 48.5612 10.784 48.5531 10.784L48.5369 9.17404C48.5369 9.11604 48.5044 9.07204 48.4598 9.05604C48.4253 9.03804 48.3726 9.03804 48.3077 9.08004L47.9243 9.36404C47.906 9.37804 47.8939 9.40204 47.8939 9.42604L47.8959 9.65204C47.8959 9.68004 47.9101 9.70404 47.9344 9.71804C47.9567 9.73204 47.9872 9.73204 48.0095 9.72004L48.0906 9.67604L48.1069 10.84C48.1048 10.84 48.0825 10.864 47.9689 10.91C47.9385 10.92 47.9202 10.95 47.9202 10.982ZM48.5247 10.806L48.5409 10.8L48.5125 10.848L48.5247 10.806Z" fill="#000407"/>
<path d="M34.5 7.67804C34.3113 7.67804 34.1612 7.82804 34.1612 8.01204V13.39C34.1612 13.576 34.3133 13.724 34.5 13.724C34.6866 13.724 34.8387 13.574 34.8387 13.39V8.01204C34.8387 7.82604 34.6866 7.67804 34.5 7.67804Z" fill="#000407"/>
<path d="M33.362 13.658V10.114C33.362 9.92803 33.2099 9.78003 33.0233 9.78003C32.8366 9.78003 32.6845 9.93003 32.6845 10.114V13.656C32.6845 13.842 32.8366 13.99 33.0233 13.99C33.2099 13.99 33.362 13.842 33.362 13.658Z" fill="#000407"/>
<path d="M36.3519 13.114V10.114C36.3519 9.92803 36.1998 9.78003 36.0132 9.78003C35.8245 9.78003 35.6744 9.93003 35.6744 10.114V13.114C35.6744 13.3 35.8266 13.448 36.0132 13.448C36.1998 13.45 36.3519 13.3 36.3519 13.114Z" fill="#000407"/>
<path d="M37.8469 12.864V9.26802C37.8469 9.08202 37.6948 8.93402 37.5082 8.93402C37.3195 8.93402 37.1694 9.08402 37.1694 9.26802V12.866C37.1694 13.052 37.3216 13.2 37.5082 13.2C37.6948 13.2 37.8469 13.05 37.8469 12.864Z" fill="#000407"/>
<path d="M31.867 13.922V9.26802C31.867 9.08202 31.7149 8.93402 31.5283 8.93402C31.3416 8.93402 31.1895 9.08402 31.1895 9.26802V13.922C31.1895 14.108 31.3416 14.256 31.5283 14.256C31.7149 14.256 31.867 14.106 31.867 13.922Z" fill="#000407"/>
<path d="M34.5162 6.12408C34.2951 6.12408 34.1166 6.30008 34.1166 6.51809C34.1166 6.73609 34.2951 6.91209 34.5162 6.91209C34.7373 6.91209 34.9158 6.73609 34.9158 6.51809C34.9158 6.30008 34.7373 6.12408 34.5162 6.12408Z" fill="#000407"/>
</g>
<defs>
<clipPath id="clip0">
<rect width="69" height="59" fill="white"/>
</clipPath>
</defs>
</svg>
