<svg width="34" height="34" viewBox="0 0 34 34" fill="none" xmlns="http://www.w3.org/2000/svg">
<g id="clarity:shopping-bag-line">
<path id="Vector" d="M23.6114 11.3333V8.54715C23.6114 7.67896 23.4404 6.81928 23.1082 6.01718C22.7759 5.21509 22.289 4.48628 21.6751 3.87238C21.0612 3.25849 20.3324 2.77152 19.5303 2.43928C18.7282 2.10704 17.8685 1.93604 17.0003 1.93604C16.1321 1.93604 15.2724 2.10704 14.4703 2.43928C13.6682 2.77152 12.9394 3.25849 12.3255 3.87238C11.7116 4.48628 11.2247 5.21509 10.8924 6.01718C10.5602 6.81928 10.3892 7.67896 10.3892 8.54715V15.1583C10.3892 15.4087 10.4887 15.649 10.6658 15.8261C10.8429 16.0032 11.0831 16.1027 11.3336 16.1027C11.5841 16.1027 11.8243 16.0032 12.0015 15.8261C12.1786 15.649 12.2781 15.4087 12.2781 15.1583V13.2221H19.8336V11.3333H12.2781V8.54715C12.2781 7.29473 12.7756 6.09362 13.6612 5.20803C14.5468 4.32244 15.7479 3.82492 17.0003 3.82492C18.2527 3.82492 19.4538 4.32244 20.3394 5.20803C21.225 6.09362 21.7225 7.29473 21.7225 8.54715V15.111C21.7225 15.3615 21.822 15.6017 21.9991 15.7789C22.1763 15.956 22.4165 16.0555 22.667 16.0555C22.9174 16.0555 23.1577 15.956 23.3348 15.7789C23.5119 15.6017 23.6114 15.3615 23.6114 15.111V13.2221H28.3336V30.2221H5.66696V13.2221H8.5003V11.3333H3.77808V30.3071C3.77808 30.7856 3.96813 31.2444 4.30642 31.5827C4.64472 31.921 5.10354 32.111 5.58196 32.111H28.4186C28.8971 32.111 29.3559 31.921 29.6942 31.5827C30.0325 31.2444 30.2225 30.7856 30.2225 30.3071V11.3333H23.6114Z" fill="#FCF5D8"/>
</g>
</svg>
